<?xml version="1.0" encoding="utf-8"?>
<!-- Generator: Adobe Illustrator 24.3.0, SVG Export Plug-In . SVG Version: 6.00 Build 0)  -->
<svg version="1.1" id="Layer_1" xmlns="http://www.w3.org/2000/svg" xmlns:xlink="http://www.w3.org/1999/xlink" x="0px" y="0px"
	 viewBox="0 0 937.8 943" style="enable-background:new 0 0 937.8 943;" xml:space="preserve">
<style type="text/css">
	.st0{fill:#1E4C2D;}
	.st1{fill:#B26D55;}
	.st2{fill:#FAC7B7;}
	.st3{fill:#E09A8C;}
	.st4{fill:#153A23;}
	.st5{fill:#32142A;}
	.st6{fill:#C05929;}
	.st7{fill:#010101;}
	.st8{fill:#BA6542;}
	.st9{fill:#FFFFFF;}
	.st10{fill:#F1673C;}
	.st11{fill:#FFC9A0;}
	.st12{fill:#EFB086;}
	.st13{fill:#7F4341;}
	.st14{fill:#F7BC28;}
	.st15{fill:#E48929;}
	.st16{fill:#FFAB00;}
	.st17{fill:#122D1C;}
	.st18{clip-path:url(#SVGID_2_);}
	.st19{fill:#39B55D;}
	.st20{fill:#1F7A36;}
	.st21{fill:#194429;}

	#star1, #star2, #star3 {
		animation-timing-function: ease-in-out;
		animation-iteration-count: infinite;
		animation-direction: alternate;
	}

	#star1 {
    animation-name: star1;
    animation-duration: 2.75s;
	}

	#star2 {
    animation-name: star2;
    animation-duration: 1.5s;
	}

	#star3 {
    animation-name: star1;
    animation-duration: 2.5s;
	}

	#star4 {
    animation-name: star2;
    animation-duration: 2.5s;
	}

	@keyframes star1 {
    0 {
      opacity: 0;
      width: 50px;
    }
		15% {
      opacity: .25;
    }
		50% {
			opacity: 1;
		}
		85% {
      opacity: .25;
    }
    100% {
        opacity: 0;
        width: 35px;
    }
  }

	@keyframes star2 {
    0 {
      opacity: 1;
      width: 35px;
    }
		50% {
			opacity: 0;
			width: 75px;
		}
    100% {
        opacity: 1;
        width: 35px;
    }
  }
</style>
<g id="Layer_1_2_">
	<g id="Layer_1_1_">
		<rect x="109.9" y="25.4" class="st0" width="627.9" height="692.9"/>
		<path class="st1" d="M730.5,112.5c3.5-12,5.4-24.5,5.7-37c0.1-3.3,0-6.7-1.2-9.6s-3.7-5-6.1-4.1c-2.2,0.8-3.5,3.8-4.4,6.6
			c-4,11.6-6.7,23.5-8.3,35.7c-0.1,2-0.6,3.9-1.4,5.7c-0.9,1.7-2.4,2.6-3.7,3.8c-6.6,5.7-10.1,17.1-8.2,27.2
			c1.9,9.8,8.1,17.8,8.9,27.9c0.1,1.2,0.2,2.6,0.8,3.3c0.6,0.5,1.3,0.8,2.1,0.7l21.5,1c3.1-13.7,9-26.6,17.4-37.9
			c5-6.6,9.3-13.7,12.7-21.2c1.9-4.3,8.5-18.2,6.6-23.2c-3.1-8.1-11,2.3-12.7,4.6c-4.4,6.3-14.3,21-18.2,29.2
			c7.5-13.8,14.1-30,16.4-46.8c0.6-4.5-1.2-8.2-4.8-9c-4.5-1-11.1,15.8-13.8,22.6S732.6,105.3,730.5,112.5z"/>
		<path class="st2" d="M703,160.8c-6.4,45.6-8.8,111.3-15.2,157c-1.4,10.2-2.9,20.6-7.2,30s-12,17.8-22,20.5l14.8,121.2
			c7.2-3,19.7-16.4,25.9-24.6c18.8-24.8,25.4-34.7,32.1-65.9c7.6-35.4,15.7-91.1,18-127c0.6-9.1,6.1-101.8,2.8-100.8
			C752.2,171.1,703,160.8,703,160.8z"/>
		<path class="st3" d="M682.4,483.2l-3.5-46.5l14.1,35.8C693,472.6,686.1,480.4,682.4,483.2z"/>
		<path class="st2" d="M471.6,692.3c-1.1,0-11.8-116.2-12.8-126.9c-5.3-61.3-20.2-157.8,50.1-185c40.1-15.5,89-18.5,130.8-9.8
			c5.4,1.1,11.1,2.5,15.4,5.9c4.1,3.2,16.7,8,18.8,12.9c13.1,31,10,267.7,4.1,300.7C481.6,692.1,491.6,692.1,471.6,692.3z"/>
		<path class="st4" d="M518.9,692.4c-3.6-81.8-2.2-163.7,4.4-245.2c0.3-4,0.7-8.3,3.1-11.5c6-8.3,18.9-4.9,28.2-0.6l-3,103.8
			c-0.1,3.2,0,6.7,2.1,9c1.8,1.9,4.6,2.4,7.2,2.8c25.2,3.7,50.7,5.3,76.1,4.9c2.8,0,5.9-0.2,7.9-2.2c2.2-2.1,2.4-5.5,2.5-8.5
			c0.5-20,1-39.9,1.5-59.9c0.2-8,0.5-16.4,4-23.6s11.1-13.2,19.1-12l-1.3,36c-0.2,5-0.3,10.3,1.8,14.9c1.5,3.3,7.6,5.7,10.5,6.5
			c0,0,0.2,13.4,0.3,18c1,54.8,0,107,0,166.3L518.9,692.4z"/>
		<path class="st1" d="M513.5,353.2c-1.2-23.3-0.3-46.6,2.7-69.7c3.8-28.4,12.8-55.9,33.3-76.7c19.9-20.1,55.5-30.2,80.2-11.6
			c17.9,13.5,24.1,40.4,25.2,61.5c1.2,23.8,0.9,47.7-1,71.5c-0.3,3.7-0.7,7.5-2.1,10.9c-4.4,10.3-16.8,14.1-27.8,16.3
			c-26.3,5.4-52.9,9.2-79.7,11.4L513.5,353.2z"/>
		<path class="st1" d="M650.8,320.7l14.1-3.2c5-1.1,8.6-5.6,8.5-10.7c-0.1-4.5-1.2-11.1-3.8-14.8c-3.2-4.5-16.6-2.4-19.3-0.2
			L650.8,320.7z"/>
		<path class="st1" d="M519.5,327c-7.5,3-17.8,5.1-22.2-1.6c-1.1-1.8-1.8-3.8-2-5.9c-0.9-5.9-0.5-12.4,3.2-17s17.9-6.4,22.3-2.4
			L519.5,327z"/>
		<path class="st5" d="M605.2,307.9c52.5-1.7,56.2,10.8,56.2,10.8c-7.4,9.3-3.5,23.8,4.8,32.4s19.8,13,30.3,18.8
			c3,1.6,6.3,4.2,5.9,7.6c-0.4,2.7-3,4.3-5.4,5.6l-36.6,20.2c-2.3,1.2-4.2,2.9-5.7,5c-3.7,5.4-1.2,8.9,1.6,11.5
			c12.2,11,34.7,12.6,38.3,28.6c2.8,12.7-9.3,23.3-19.7,31.1s-21.8,19.9-16.9,32c3.9,9.8,16.1,12.9,23.5,20.4
			c15.7,15.8,3.5,46.3-17.3,54c-5.5,2-10.1,5.8-13,10.8c-6.4,11.3,3.1,16.6,6.2,24.5c3.5,8.9-1.8,18.6-6.8,26.7l-9.3,14.9
			c-2.9,4.6-8.9,5.9-13.4,3.1c-2.2-1.4-3.7-3.5-4.3-6c-0.9-3.5-2.1-6.9-3.6-10.1c-6.6-13.6-22.1-24.2-37.2-17
			c-4.4,2.3-9.7,2.2-14.1-0.3c-9.3-5.7-2.3-15.7-3.8-24c-1.6-9.3-12.6-13.4-22-14.3c-11-1-23.6-0.3-30.2-10.8
			c-3.4-5.4-3.9-11.9-2.5-18.1c4.1-18.3,20.9-29.5,24.2-48.3c1-5.1,0.2-10.5-2.2-15.1c-11-19.8-40.4-3.6-51.4-24.9
			c-2.4-4.8-3.2-10.3-2.2-15.6c2.5-14.3,13.1-24,23.3-33.3l27.8-25.2c2-1.8,4-3.6,5-6c3.1-7-3.1-14.7-9.8-18.4
			c-8.6-4.7-19.2-7-22.3-18.1c-1.6-6,10.1-33,13.3-38.3C515.8,322,537.5,310.1,605.2,307.9z"/>
		<path class="st5" d="M542.1,278.6c-4.5,2.3-9.6-2-7.9-6.8c0.2-0.5,0.4-0.9,0.6-1.4c2-4.1,5.2-7.5,8.5-10.6
			c5.1-4.8,10.6-9,16.6-12.5c1.3-0.8,2.7-1.4,4.2-1.5c2.3,0.1,4.5,1.4,5.7,3.4s2,4.1,2.5,6.4c0.5,1.9,1,3.9,0.2,5.7
			c-2,4.9-7.7,6.8-12.2,8.5C554,272.4,548.1,275.5,542.1,278.6z"/>
		<path class="st5" d="M618.5,244.4c-2.1-0.8-4.5,0.3-5.3,2.4c-0.1,0.3-0.2,0.7-0.2,1c-1.3,7.5-3.7,11.2,2.8,15.9
			c7,5.2,18,8.4,26.8,8.9c0.8,0.1,1.6,0,2.3-0.5c0.5-0.5,0.9-1.2,1-1.9c1.3-4.8-5.4-13-10.9-16.4
			C626.8,248.7,627.5,248.1,618.5,244.4z"/>
		<path class="st6" d="M600.2,287.7c4.7,7.1,11.8,14.7,9.6,23c-1.6,6.1-8.9,8.2-15.1,9.4c-5,0.9-11.8,0.9-13.3-4
			c-0.4-1.8-0.3-3.7,0.2-5.4c1.5-6.8,3.3-13.5,5.3-20.1C590,280.6,592.6,276.1,600.2,287.7z"/>
		<path class="st1" d="M565.9,336.5c-6,2.1,4.3,12.2,10,14.9s12.4,2.6,18.7,1.4c12.4-2.4,25-10.9,26.5-23.5
			C621,329.3,601.5,323.7,565.9,336.5z"/>
		<path class="st7" d="M585.2,343.3c7.2,1.6,14.6-0.6,19.8-5.8c1.7-1.7-1-4.3-2.6-2.6c-4.2,4.3-10.3,6.1-16.2,4.9
			C583.9,339.2,582.9,342.8,585.2,343.3L585.2,343.3z"/>
		<path class="st8" d="M652.7,454.8l1.4-6.8c0.2-0.7-0.1-1.4-0.8-1.7c-0.7-0.2-1.4,0.1-1.7,0.8v0.1l-1.4,6.8
			c-0.2,0.7,0.2,1.4,0.9,1.6C651.8,455.9,652.5,455.5,652.7,454.8L652.7,454.8z"/>
		<path class="st8" d="M591.8,433.8c-0.7,4.6,0.3,9.3,2.9,13.1c0.3,0.7,1.1,0.9,1.8,0.6s0.9-1.1,0.6-1.8c0-0.1-0.1-0.1-0.1-0.2
			c-2.2-3.3-3.1-7.2-2.6-11.1c0.2-0.7-0.2-1.4-0.9-1.6C592.8,432.6,592,433.1,591.8,433.8z"/>
		<path class="st8" d="M563.4,511.2v9.5c-0.1,0.7,0.5,1.4,1.2,1.4c0.7,0.1,1.4-0.5,1.4-1.2c0-0.1,0-0.2,0-0.2v-9.5
			c0.1-0.7-0.5-1.4-1.2-1.4c-0.7-0.1-1.4,0.5-1.4,1.2C563.4,511.1,563.4,511.1,563.4,511.2z"/>
		<path class="st8" d="M525.4,566.3c-0.6-3.9,0.3-7.9,2.5-11.2c0.4-0.6,0.1-1.4-0.5-1.8c-0.6-0.4-1.4-0.2-1.8,0.5
			c-2.5,3.9-3.5,8.6-2.7,13.2c0.2,0.7,0.9,1.1,1.6,0.9C525.2,567.7,525.6,567,525.4,566.3L525.4,566.3z"/>
		<path class="st8" d="M572.8,588.3v5.4c-0.1,0.7,0.5,1.4,1.2,1.4c0.7,0.1,1.4-0.5,1.4-1.2c0-0.1,0-0.2,0-0.2v-5.4
			c-0.1-0.7-0.7-1.3-1.4-1.2C573.4,587.2,572.9,587.7,572.8,588.3z"/>
		<path class="st8" d="M645.6,637.3c1.2-5,0.2-10.3-2.6-14.6c-0.9-1.4-3.2-0.1-2.3,1.3c2.5,3.7,3.3,8.2,2.3,12.5
			C642.7,638.3,645.2,639,645.6,637.3z"/>
		<path class="st8" d="M647.3,560.4c1,4.7,5,8.3,9.8,8.8c0.7,0,1.3-0.6,1.3-1.3s-0.6-1.3-1.3-1.3H657c-0.1,0-0.2,0-0.4-0.1
			c-0.2,0-0.5-0.1-0.7-0.2s-0.5-0.1-0.7-0.2l-0.3-0.1c0.2,0.1-0.1,0-0.1-0.1c-0.4-0.2-0.9-0.4-1.3-0.7l-0.3-0.2l-0.1-0.1
			c-0.2-0.2-0.4-0.3-0.6-0.5c-0.4-0.3-0.7-0.7-1-1.1c0-0.1,0-0.1,0,0l-0.1-0.2c-0.1-0.1-0.1-0.2-0.2-0.3c-0.1-0.2-0.3-0.4-0.4-0.6
			s-0.2-0.4-0.3-0.6c0,0-0.2-0.4-0.1-0.2c0-0.1-0.1-0.2-0.1-0.2c-0.2-0.5-0.3-1-0.4-1.5c-0.2-0.7-0.9-1.1-1.6-0.9
			C647.5,559,647.1,559.7,647.3,560.4L647.3,560.4z"/>
		<path class="st8" d="M609.3,544.1c-1.6,4.7-0.5,9.8,2.7,13.5c0.5,0.5,1.4,0.5,1.9,0s0.5-1.4,0-1.9c-2.5-3.1-3.2-7.2-1.9-11
			c0.2-0.7-0.1-1.5-0.8-1.7s-1.5,0.1-1.7,0.8C609.4,543.9,609.4,544,609.3,544.1L609.3,544.1z"/>
		<path class="st8" d="M624.2,517.6c-0.7-3.4,0.1-6.9,2.3-9.5c0.5-0.5,0.5-1.4,0-1.9s-1.4-0.5-1.9,0c-2.8,3.4-3.9,7.8-2.9,12.1
			c0.2,0.7,0.9,1.2,1.6,1c0.7-0.2,1.2-0.9,1-1.6C624.2,517.7,624.2,517.7,624.2,517.6z"/>
		<path class="st8" d="M615.8,618.4l1.7-12.1c0.2-0.7-0.2-1.4-0.9-1.6c-0.7-0.2-1.4,0.2-1.6,0.9l-1.7,12.1c-0.2,0.7,0.2,1.4,0.9,1.6
			S615.6,619.1,615.8,618.4z"/>
		<path class="st8" d="M514.3,450.7l1.4-8.1c0.2-0.7-0.1-1.4-0.8-1.7c-0.7-0.2-1.4,0.1-1.7,0.8v0.1l-1.4,8.2
			c-0.2,0.7,0.1,1.4,0.8,1.7c0.7,0.2,1.4-0.1,1.7-0.8C514.3,450.8,514.3,450.8,514.3,450.7L514.3,450.7z"/>
		<path class="st8" d="M563.3,454.8l2.7-6.8c0.2-0.7-0.2-1.4-0.9-1.6l0,0c-0.7-0.2-1.4,0.2-1.6,0.9l-2.7,6.8
			c-0.2,0.7,0.2,1.4,0.9,1.6S563.1,455.5,563.3,454.8L563.3,454.8z"/>
		<path class="st8" d="M564.7,404.4v-10.8c-0.1-0.7-0.7-1.3-1.4-1.2c-0.6,0.1-1.2,0.6-1.2,1.2v10.8c0.1,0.7,0.7,1.3,1.4,1.2
			C564.1,405.5,564.6,405,564.7,404.4L564.7,404.4z"/>
		<path class="st8" d="M651,389.8c-0.2,0.5,0,0,0.1-0.2s0.2-0.3,0.3-0.5s0.2-0.4,0.3-0.5l-0.1,0.1l0.1-0.1l0.2-0.2
			c0.6-0.7,1.2-1.3,1.9-1.9c0.2-0.1,0.3-0.3,0.5-0.4l0.1-0.1c0.1-0.1,0.2-0.1,0.3-0.2c0.3-0.3,0.7-0.5,1.1-0.7l0.5-0.3
			c0.1,0,0.2-0.1,0.3-0.1c-0.1,0.1-0.3,0.1,0,0c0.2-0.1,0.3-0.1,0.5-0.2h0.2c0.3-0.1-0.2,0,0,0c0.7,0,1.3-0.6,1.3-1.3
			c0-0.7-0.6-1.3-1.3-1.3c-2,0.4-3.8,1.3-5.2,2.7c-1.5,1.2-2.8,2.7-3.6,4.5c-0.2,0.7,0.2,1.4,0.9,1.6S650.8,390.5,651,389.8
			L651,389.8z"/>
		<path class="st8" d="M521.9,337.9c-1.9,5.4-2.2,11.3-0.8,16.9c0.4,1.7,3,1,2.6-0.7c-1.2-5.1-0.9-10.5,0.8-15.5
			C525,337,522.4,336.3,521.9,337.9z"/>
		<path class="st8" d="M547.1,365.1V353c0-0.7-0.6-1.3-1.3-1.3s-1.3,0.6-1.3,1.3v12.2c0,0.7,0.6,1.3,1.3,1.3
			S547.1,365.9,547.1,365.1L547.1,365.1z"/>
		<path class="st8" d="M552.6,322.4c-0.2,2.6,1.1,5.1,3.3,6.5c0.6,0.4,1.4,0.3,1.8-0.3c0.4-0.6,0.3-1.4-0.3-1.8
			c-0.1,0-0.1-0.1-0.2-0.1l-0.3-0.2c-0.2-0.1,0.1,0,0.1,0.1s-0.1-0.1-0.2-0.1c-0.2-0.2-0.4-0.3-0.5-0.5l-0.1-0.1v-0.1
			c0.1,0.2,0,0,0,0c0-0.1-0.1-0.1-0.1-0.2c-0.1-0.2-0.3-0.4-0.4-0.6l-0.1-0.1c-0.1-0.2,0,0,0,0.1c0-0.1-0.1-0.2-0.1-0.3
			c-0.1-0.2-0.1-0.5-0.2-0.7v-0.2c0,0,0-0.3,0-0.1s0,0,0-0.1s0-0.1,0-0.2c0-0.3,0-0.5,0-0.8c0-0.7-0.6-1.3-1.3-1.3l0,0
			C553.2,321.1,552.6,321.7,552.6,322.4L552.6,322.4z"/>
		<path class="st8" d="M610.9,383.4c2.2,3.9,3.6,8.3,4,12.8c0,0.7,0.6,1.3,1.3,1.3s1.3-0.6,1.3-1.3c-0.4-5-1.9-9.8-4.4-14.2
			C612.3,380.6,610,381.9,610.9,383.4L610.9,383.4z"/>
		<path class="st8" d="M627.1,347.5v12.2c0,0.7,0.6,1.3,1.3,1.3s1.3-0.6,1.3-1.3v-12.2c0-0.7-0.6-1.3-1.3-1.3
			C627.7,346.2,627.1,346.8,627.1,347.5z"/>
		<path class="st8" d="M619.4,318c0.2,0,0.5,0,0.8,0c0.2,0-0.1,0-0.1,0c0.1,0,0.1,0,0.2,0l0.4,0.1c0.2,0.1,0.5,0.1,0.7,0.2
			c-0.4-0.1,0,0,0.1,0l0.3,0.2c0.1,0.1,0.2,0.1,0.3,0.2l0.2,0.1l0,0l0,0l0.1,0.1l0.2,0.2c0.1,0.1,0.2,0.2,0.2,0.3l0.1,0.1
			c0.1,0.1-0.2-0.3,0-0.1c0.1,0.2,0.3,0.4,0.4,0.6c0.4,0.6,1.2,0.8,1.8,0.5c0.6-0.4,0.8-1.2,0.5-1.8c-1.2-2.3-3.6-3.6-6.2-3.6
			c-0.7,0-1.3,0.6-1.3,1.3c0,0.7,0.6,1.3,1.3,1.3l0,0V318z"/>
		<path class="st8" d="M651.3,330c0-0.2-0.1-0.3-0.1-0.5c0-0.1,0-0.2,0-0.2l0,0c0-0.3,0-0.5,0-0.8s0-0.6,0-0.9c0-0.1,0-0.2,0-0.4
			c0,0.3,0-0.2,0-0.2c0.1-0.6,0.3-1.1,0.5-1.7c0.1-0.3-0.1,0.1,0-0.1s0.1-0.3,0.2-0.4s0.3-0.5,0.5-0.8c0.4-0.6,0.3-1.4-0.3-1.8
			s-1.4-0.3-1.8,0.3c0,0.1-0.1,0.1-0.1,0.2c-1.5,2.4-2.1,5.3-1.4,8.1c0.2,0.7,0.9,1.1,1.6,0.9c0.7-0.2,1.1-0.9,0.9-1.6l0,0
			L651.3,330L651.3,330z"/>
		<path class="st8" d="M580.8,375.5c0.2,3.1,0.8,6.2,1.7,9.2c0.2,0.7,0.9,1.2,1.6,1c0.7-0.2,1.2-0.9,1-1.6V384
			c-0.9-2.8-1.4-5.6-1.7-8.5c0-0.7-0.6-1.3-1.3-1.3C581.4,374.2,580.8,374.8,580.8,375.5L580.8,375.5z"/>
		<path class="st8" d="M543.7,429.2c0.4,3.2-0.3,6.5-2.1,9.2c-0.4,0.6-0.3,1.4,0.3,1.8s1.4,0.3,1.8-0.3c0-0.1,0.1-0.1,0.1-0.2
			c2.1-3.1,2.9-6.8,2.5-10.5c0-0.7-0.6-1.3-1.3-1.3C544.3,427.8,543.7,428.4,543.7,429.2L543.7,429.2z"/>
		<path class="st8" d="M605.8,477.4c0.1-0.4,0.2-0.8,0.3-1.1c0.1-0.3-0.1,0.2,0,0c0-0.1,0.1-0.2,0.1-0.3s0.2-0.4,0.3-0.5
			c0.1-0.2,0.2-0.3,0.3-0.5l0.2-0.2c0.2-0.2-0.2,0.2,0,0c0.3-0.3,0.5-0.6,0.8-0.9l0.4-0.4l0.1-0.1h-0.1l0.2-0.2
			c0.3-0.2,0.7-0.4,1-0.6l0.3-0.1l0.2-0.1c-0.2,0.1,0.1,0,0.2-0.1l0.3-0.1c0.4-0.1,0.8-0.2,1.2-0.3c0.7-0.2,1.1-0.9,0.9-1.6l0,0
			c-0.2-0.7-0.9-1.1-1.6-0.9c-3.8,0.7-6.8,3.6-7.8,7.4c-0.2,0.7,0.1,1.5,0.8,1.7s1.5-0.1,1.7-0.8
			C605.8,477.6,605.8,477.5,605.8,477.4L605.8,477.4z"/>
		<path class="st8" d="M587.7,521.5C587.7,521.4,587.7,521.5,587.7,521.5l0.1,0.3c0,0.1,0.1,0.3,0.1,0.4c0.1,0.3,0.2,0.6,0.3,0.9
			c0.2,0.6,0.3,1.2,0.4,1.8c0,0.1,0,0.3,0.1,0.4c0,0.1,0,0.2,0,0.3c0-0.1,0-0.1,0,0c0,0.3,0.1,0.6,0.1,0.9c0,0.6,0,1.3,0,1.9
			c0,0.7,0.6,1.3,1.3,1.3s1.3-0.6,1.3-1.3c0.1-2.8-0.4-5.6-1.5-8.2c-0.4-0.6-1.2-0.8-1.8-0.5C587.6,520.1,587.4,520.9,587.7,521.5
			L587.7,521.5z"/>
		<path class="st8" d="M558.5,556.4c-2.2,2.5-3.7,5.5-4.3,8.8c-0.2,0.7,0.2,1.4,0.9,1.6c0.7,0.2,1.4-0.2,1.6-0.9
			c0.1-0.7,0.3-1.5,0.5-2.2c0.2-0.6,0.4-1.3,0.7-1.9c0.3-0.7,0.7-1.3,1.1-1.9l0.3-0.5l0.2-0.3c0,0,0.2-0.2,0.1-0.1
			c0.1-0.2,0.5-0.6,0.7-0.8c0.5-0.5,0.5-1.4-0.1-1.9C559.8,556,559,556,558.5,556.4L558.5,556.4z"/>
		<path class="st8" d="M584.3,622.3l2-6.1c0.2-0.7-0.2-1.4-0.9-1.6c-0.7-0.2-1.4,0.2-1.6,0.9l-2,6.1c-0.2,0.7,0.3,1.4,1,1.6
			C583.4,623.4,584.1,623,584.3,622.3L584.3,622.3z"/>
		<path class="st8" d="M647.7,524.1c0.1,0.4,0.1,0.4,0.1,0.8s0,0.7,0.1,1c0,0.6,0,1.3-0.1,1.9c0,0.4,0,0.4-0.1,0.7s-0.1,0.6-0.2,0.9
			c-0.2,0.7-0.3,1.3-0.6,1.9c-0.2,0.7,0.2,1.4,0.9,1.6c0.7,0.2,1.4-0.2,1.6-0.9c1-2.8,1.3-5.8,0.8-8.7c-0.2-0.7-0.9-1.1-1.6-0.9
			C647.9,522.6,647.5,523.4,647.7,524.1L647.7,524.1z"/>
		<path class="st8" d="M629.4,576.2c-0.2,2.3,0,4.7,0.5,6.9c0.2,0.7,0.9,1.2,1.6,1c0.7-0.2,1.2-0.9,1-1.6v-0.1
			c-0.1-0.5-0.2-1.1-0.3-1.6v-0.1c0-0.1,0-0.3,0-0.4s0-0.5-0.1-0.8c-0.1-1.1-0.1-2.2,0-3.2c0-0.7-0.6-1.3-1.3-1.3
			C629.9,574.9,629.4,575.5,629.4,576.2L629.4,576.2z"/>
		<path class="st8" d="M629.9,434.8c0-0.4,0-0.8,0-1.2v-0.3c0,0,0-0.3,0-0.2s0-0.2,0-0.2l0.1-0.3c0.1-0.4,0.2-0.8,0.3-1.2l0.2-0.5
			c0-0.1,0.1-0.2,0.1-0.3c0.1-0.2-0.1,0.3,0-0.1c0.3-0.7,0.7-1.4,1.2-2l0.1-0.1l0.2-0.2c0.1-0.1,0.2-0.3,0.4-0.4
			c0.3-0.3,0.6-0.6,0.9-0.9c0.5-0.5,0.5-1.4-0.1-1.9c-0.5-0.5-1.3-0.5-1.8,0c-2.8,2.5-4.4,6.1-4.3,9.9c0,0.7,0.6,1.3,1.3,1.3
			S629.8,435.6,629.9,434.8L629.9,434.8L629.9,434.8z"/>
		<path class="st8" d="M575.7,481.3c0.1,0.3,0.3,0.6,0.4,0.9c0,0.1,0.1,0.2,0.1,0.2c0.1,0.1,0.1,0.2,0,0.1l0.2,0.4
			c0.2,0.6,0.4,1.2,0.6,1.8s0.3,1.2,0.5,1.9c0.1,0.3,0.1,0.6,0.2,0.9c0,0,0.1,0.4,0,0.2l0.1,0.5c0,0.7,0.6,1.3,1.3,1.3
			s1.3-0.6,1.3-1.3c-0.3-2.9-1.1-5.6-2.4-8.2c-0.4-0.6-1.2-0.8-1.8-0.5C575.5,479.8,575.3,480.6,575.7,481.3L575.7,481.3z"/>
		<path class="st8" d="M494.2,470.1c-0.1,3.3,1.6,6.3,4.5,7.8c0.6,0.4,1.4,0.1,1.8-0.5s0.1-1.4-0.5-1.8c-0.3-0.1-0.6-0.3-0.8-0.5
			L499,475c-0.1-0.1,0.2,0.2,0,0s-0.2-0.2-0.4-0.3s-0.7-0.7-0.7-0.7l0,0c0-0.1-0.1-0.1-0.1-0.2l-0.3-0.4l-0.2-0.4
			c0-0.1,0-0.1-0.1-0.2l-0.1-0.1c0-0.1,0-0.1,0,0.1c0-0.2-0.1-0.3-0.2-0.5l-0.1-0.4c0-0.2-0.1-0.3-0.1-0.5c0-0.1,0-0.2,0-0.2
			c0,0.3,0,0.1,0,0c0-0.3,0-0.7,0-1c0-0.7-0.6-1.3-1.3-1.3C494.8,468.8,494.3,469.4,494.2,470.1L494.2,470.1z"/>
		<path class="st8" d="M531.4,469.3c0-0.5,0-1,0-1.5c0-0.3,0-0.5,0-0.8v-0.3c0,0,0.1-0.5,0-0.3s0-0.2,0-0.3l0.1-0.3
			c0-0.2,0.1-0.5,0.2-0.7c0.1-0.5,0.2-1,0.4-1.5c0.2-0.7-0.2-1.4-0.9-1.6s-1.4,0.2-1.6,0.9c-0.7,2-1,4.2-0.9,6.4
			c0,0.7,0.6,1.3,1.3,1.3s1.3-0.6,1.3-1.3l0,0L531.4,469.3z"/>
		<path class="st8" d="M543.8,490.1c0.2,0.3,0.3,0.5,0.4,0.8l0.2,0.4c0,0.1,0.1,0.2,0.1,0.2c0-0.1,0-0.1,0,0
			c0.2,0.5,0.4,1.1,0.5,1.6c0.1,0.3,0.1,0.6,0.2,0.8s0,0.3,0.1,0.5c0-0.2,0,0,0,0.1c0,0.6,0,1.2,0,1.8c0,0.7,0.6,1.3,1.3,1.3
			s1.3-0.6,1.3-1.3l0,0c0.1-2.7-0.6-5.3-1.9-7.6c-0.3-0.7-1.1-0.9-1.8-0.6s-0.9,1.1-0.6,1.8C543.7,489.9,543.7,490,543.8,490.1
			L543.8,490.1z"/>
		<path class="st8" d="M590.7,570.8c-0.9,5.7,1.9,11.3,7,13.9c0.6,0.4,1.4,0.1,1.8-0.5c0.4-0.6,0.2-1.4-0.5-1.8
			c-4.1-2-6.4-6.4-5.8-10.9c0.2-0.7-0.2-1.4-0.9-1.6C591.6,569.7,590.9,570.1,590.7,570.8L590.7,570.8z"/>
		<path class="st8" d="M653.3,479.4c5.3-0.2,9.9-3.8,11.4-8.9c0.1-0.7-0.3-1.4-1-1.6c-0.7-0.1-1.3,0.2-1.5,0.9
			c-1.2,3.9-4.8,6.7-8.9,6.9c-0.7,0-1.3,0.6-1.3,1.3C651.9,478.8,652.5,479.4,653.3,479.4L653.3,479.4z"/>
		<path class="st8" d="M678.9,448.4l0.8,4.3c0.2,0.7,0.9,1.1,1.6,0.9c0.7-0.2,1.1-0.9,0.9-1.6l-0.9-4.3c-0.2-0.7-0.9-1.1-1.6-0.9
			C679.2,447,678.8,447.7,678.9,448.4L678.9,448.4z"/>
		<path class="st8" d="M669.9,365.3c0.7,2.6,2.2,5,4.3,6.7c0.3,0.2,0.6,0.4,0.9,0.4c0.7,0,1.3-0.6,1.3-1.3c0-0.4-0.1-0.7-0.4-1
			c-0.5-0.4-0.9-0.8-1.3-1.2c-0.2-0.2-0.4-0.4-0.6-0.7c0.1,0.1,0.1,0.1,0,0l-0.1-0.1c-0.1-0.1-0.2-0.3-0.3-0.4
			c-0.3-0.5-0.6-1-0.8-1.6c0-0.1,0-0.1-0.1-0.2c0.2,0.2,0,0.1,0,0s-0.1-0.3-0.2-0.4c-0.1-0.3-0.2-0.6-0.3-0.9
			c-0.2-0.7-1-1.1-1.7-0.8C670.1,364,669.7,364.7,669.9,365.3L669.9,365.3z"/>
		<path class="st2" d="M578.4,417.1c-6.8,2.5-13.1,7.6-14.4,12.5c-2.5,9.4,9.3,12.1,16.3,9.8c4.2-1.6,8-4,11.2-7.2
			c3.1-2.9,7.5-8.2,4.5-12.5C592.4,414.6,585.2,414.6,578.4,417.1z"/>
		<path class="st9" d="M581.8,419.8c-4.4,2.3-10,4.3-12.4,9.1c-1,2.1-0.8,4.3,1.2,5.7s4.8,1.6,7.2,1.3c5.1-0.7,10.4-3.5,13.3-7.9
			c1-1.5,1.7-3.9,0.1-5.3c-1.2-1-2.9-0.6-4.2-0.1c-1.9,0.9-3.7,2-5.4,3.3c-1.3,0.9-2.5,2-3.6,3.3c-1,1.4,1.3,2.7,2.3,1.3
			c-0.3,0.4,0.1-0.1,0.2-0.2l0.5-0.4c0.5-0.5,1-0.9,1.5-1.3c1.1-0.9,2.3-1.7,3.5-2.5c0.6-0.4,1.2-0.7,1.8-1c0.2-0.1,0.4-0.2,0.6-0.2
			l0.6-0.1c0.1,0,0.2,0,0.4,0c-0.3,0,0,0,0.1,0c-0.1,0-0.1,0-0.2-0.1c0.1,0.5,0,1-0.2,1.4c-1.9,3.5-6.1,5.8-9.8,6.8
			c-1.9,0.6-4,0.7-5.9,0.2c-0.7-0.2-1.6-0.5-1.9-1.2c-0.1-0.6,0-1.2,0.3-1.8c2.3-4.3,7.3-5.9,11.4-8
			C584.6,421.3,583.3,419,581.8,419.8L581.8,419.8z"/>
		<path class="st10" d="M547.8,497.1c-6.5-3.2-14.5-4.3-18.9-1.9c-8.6,4.6-2.4,15.1,4,18.6c3.9,2.1,8.4,2.9,12.9,3.2
			c4.2,0.3,11.1-0.2,12.2-5.3C559.3,505.5,554.3,500.2,547.8,497.1z"/>
		<path class="st9" d="M548.2,501.3c-4.8-1.6-9.6-4.1-14.8-2.9c-2,0.5-3.7,1.8-3.8,4c-0.1,2.8,2,5.4,4.1,7c4.1,3.2,9.6,5.1,14.8,4.2
			c1.7-0.3,3.9-1.3,3.9-3.4c0-1.6-1.4-2.6-2.7-3.2c-1.9-0.8-3.9-1.4-6-1.7c-1.6-0.4-3.1-0.5-4.7-0.4c-0.7,0-1.3,0.6-1.3,1.3
			c0,0.7,0.6,1.3,1.3,1.3c2.5-0.1,5,0.2,7.3,1c0.7,0.2,1.4,0.4,2,0.7c0.4,0.2,0.9,0.4,1.2,0.7c0.1,0.1,0.2,0.2,0.2,0.2
			c-0.2-0.2,0,0,0,0s0-0.1,0,0c0-0.1-0.1-0.2,0-0.2c0,0.1-0.1,0.2-0.2,0.3c-0.3,0.2-0.6,0.4-0.9,0.4c-3.8,1.1-8.2-0.4-11.4-2.3
			c-2-1.1-3.7-2.7-4.7-4.8c-0.6-1.6-0.1-2.4,1.4-2.8c4.6-1.2,9.2,1.4,13.5,2.8C549.1,504.4,549.8,501.8,548.2,501.3L548.2,501.3z"/>
		<path class="st2" d="M653.2,486.8c-7.2,1-14.4,4.7-16.7,9.1c-4.4,8.7,6.6,13.8,13.8,13c4.4-0.5,8.6-2.4,12.5-4.6
			c3.6-2.1,9.1-6.4,7.1-11.2C667.4,487.3,660.3,485.8,653.2,486.8z"/>
		<path class="st9" d="M655.9,490.1c-4.9,1.4-10.7,2.1-14.1,6.3c-1.4,1.8-1.7,4-0.1,5.8s4.3,2.6,6.7,2.8c5.1,0.4,11.1-1.2,14.8-4.9
			c1.3-1.3,2.5-3.5,1.2-5.1c-1-1.2-2.7-1.2-4.1-0.9c-2.1,0.4-4,1.1-5.9,2.1c-1.5,0.6-2.8,1.4-4.1,2.4c-1.3,1.1,0.6,3,1.9,1.9
			c0.2-0.2-0.1,0.1,0.2-0.1l0.5-0.4c0.5-0.3,1.1-0.6,1.7-0.9c1.2-0.6,2.5-1.2,3.9-1.7c1.1-0.5,2.4-0.8,3.7-0.8c-0.2,0,0.5,0,0.2,0
			c0.1,0,0.1,0,0.1,0s0.1-0.3,0,0c0,0.1,0,0.2,0,0.3c-0.1,0.3-0.3,0.6-0.5,0.9c-2.5,3.1-7.2,4.4-11,4.6c-2,0.2-4.1-0.2-5.9-1
			c-1.4-0.8-2.1-1.8-1-3.2c2.9-3.8,8.5-4.3,12.8-5.4c0.7-0.2,1.1-0.9,0.9-1.6S656.7,489.8,655.9,490.1L655.9,490.1L655.9,490.1z"/>
		<path class="st10" d="M656.8,342.6c-7.2,1-14.4,4.7-16.7,9.1c-4.4,8.7,6.6,13.8,13.8,13c4.4-0.7,8.7-2.2,12.5-4.6
			c3.6-2.1,9.1-6.4,7.1-11.2C671,343.1,663.9,341.6,656.8,342.6z"/>
		<path class="st9" d="M659.5,345.9c-4.9,1.4-10.7,2.1-14.1,6.3c-1.4,1.8-1.7,4-0.1,5.8s4.3,2.6,6.7,2.8c5.1,0.5,11.1-1.2,14.8-4.9
			c1.3-1.3,2.5-3.5,1.2-5.1c-1-1.2-2.7-1.2-4.1-0.9c-2.1,0.4-4,1.1-5.9,2.1c-1.5,0.6-2.8,1.4-4.1,2.4c-1.3,1.1,0.6,3,1.9,1.9
			c0.2-0.2-0.1,0.1,0.2-0.1l0.5-0.4c0.5-0.3,1.1-0.6,1.7-0.9c1.3-0.7,2.5-1.2,3.9-1.7c1.1-0.5,2.4-0.8,3.7-0.7c-0.3,0,0.5,0,0.2,0
			c0.1,0,0.1,0,0.1,0s0.1-0.3,0,0c0,0.1,0,0.2,0,0.3c-0.1,0.3-0.3,0.6-0.5,0.9c-2.5,3.1-7.2,4.4-11,4.6c-2,0.2-4.1-0.1-5.9-1
			c-1.4-0.8-2.1-1.8-1-3.2c3-3.8,8.5-4.3,12.8-5.5c0.7-0.2,1.1-1,0.8-1.7C660.9,346.1,660.2,345.7,659.5,345.9L659.5,345.9z"/>
		<path class="st10" d="M549.5,578.1c-6.8-2.6-14.9-3-19-0.2c-8.1,5.4-1,15.3,5.7,18.1c4.1,1.8,8.7,2.1,13.1,2.1
			c4.2-0.1,11.1-1.2,11.7-6.3C561.7,585.5,556.2,580.7,549.5,578.1z"/>
		<path class="st9" d="M550.3,582.3c-4.9-1.2-10.2-3.4-15.2-1.5c-1.9,0.7-3.5,2.2-3.3,4.3c0.2,2.8,2.6,5.2,4.9,6.6
			c4.3,2.7,10,4.1,15,2.8c1.7-0.5,3.8-1.8,3.6-3.9c-0.2-1.6-1.8-2.4-3.1-2.9c-2-0.6-4.1-1-6.2-1.1c-1.6-0.2-3.2-0.2-4.8,0.1
			c-1.7,0.3-1,2.9,0.7,2.6c0.1,0,0.3,0,0,0h0.3h0.6c0.6,0,1.3,0,1.9,0c1.4,0,2.9,0.2,4.3,0.5c1.2,0.2,2.4,0.6,3.5,1.2
			c-0.1-0.1,0.1,0.1,0.1,0.1l0,0c-0.5,0.3,0.5-0.6,0,0c-0.2,0.2,0,0.1-0.2,0.2c-0.3,0.2-0.5,0.4-0.8,0.5c-3.5,1.4-8.2,0.4-11.5-1.1
			c-2-1-4.2-2.3-5.3-4.4c-0.7-1.4-0.5-2.4,1-2.9c4.4-1.7,9.4,0.5,13.7,1.5C551.3,585.3,552,582.8,550.3,582.3L550.3,582.3z"/>
		<path class="st4" d="M520,259.3c-3.2-8.4-4.6-17.5-4-26.5c0-1.7,0.5-3.4,1.4-4.9c1-1.1,2.2-2,3.6-2.5
			c36.7-18.1,74.5-22.1,114.1-32.5c4.4-1.2,9.4-2.3,13.4,0s5.7,6.8,6.5,11.2c2.3,11.4,3,17.1-1.8,27.6L520,259.3z"/>
		<path class="st4" d="M533.1,220.4c5.5-21.3,23.8-38.7,45.3-43.2s45.2,4.2,58.8,21.5"/>
		<path class="st5" d="M507.8,303.1c-2.9,0-5.6,1.5-7.1,3.9c-1.8,2.6-2.1,6-1.8,9c0.3,2.8,1.1,5.9,3.3,7.8c2.1,2,5.3,2.5,7.9,1.2
			c2.2-1.1,0.3-4.3-1.9-3.2c-1.3,0.7-2.9-0.1-3.8-1.1c-1.2-1.5-1.8-3.4-1.8-5.4c-0.2-3.4,0.9-8.7,5.3-8.6
			C510.2,306.9,510.2,303.2,507.8,303.1L507.8,303.1z"/>
		<path class="st5" d="M508.8,310.4c-2.6,2.4-1.5,6.9,1.3,8.7c0.8,0.5,1.8,0.8,2.7,0.7c1,0,1.9-0.9,1.9-1.9s-0.8-1.9-1.9-1.9
			c-0.2,0-0.4,0-0.5,0l0.5,0.1c-0.3,0-0.5-0.1-0.8-0.2l0.5,0.2c-0.2-0.1-0.4-0.2-0.6-0.3c-0.2-0.1,0.3,0.3,0.2,0.1l-0.1-0.1
			l-0.2-0.2c-0.1-0.1-0.3-0.4-0.1-0.1s0-0.1-0.1-0.1c-0.1-0.2-0.2-0.4-0.3-0.7l0.2,0.4c-0.1-0.4-0.3-0.7-0.3-1.1l0.1,0.5
			c0-0.3,0-0.7,0-1L511,314c0-0.3,0.1-0.5,0.2-0.8l-0.2,0.5c0.1-0.2,0.2-0.3,0.3-0.5l0.1-0.1c0,0-0.3,0.4-0.2,0.2l0.2-0.2
			c0.7-0.7,0.7-1.9,0-2.6C510.7,309.6,509.5,309.6,508.8,310.4L508.8,310.4z"/>
		<path class="st5" d="M656.6,297.4c4-0.1,7.3,3.1,7.4,7.1c0,2.3-1,4.4-2.8,5.8c-0.9,0.5-1.2,1.7-0.7,2.6s1.7,1.2,2.6,0.7
			c4.9-3.6,6-10.5,2.4-15.4c-2.1-2.8-5.4-4.5-8.9-4.5c-1,0.1-1.8,1-1.7,2C654.9,296.6,655.6,297.4,656.6,297.4L656.6,297.4z"/>
		<path class="st5" d="M655.1,303.2c0.2,0.1-0.2-0.1-0.2-0.1S655,303.2,655.1,303.2l0.1,0.1C655.4,303.4,654.9,303,655.1,303.2
			l0.3,0.3c0,0,0.2,0.2,0,0s0,0,0,0c0.1,0.1,0.1,0.2,0.2,0.3c0,0,0.2,0.3,0,0s0-0.1,0,0c0.1,0.3,0.2,0.6,0.2,0.9l-0.1-0.5
			c0,0.3,0,0.7,0,1l0.1-0.5c0,0.1,0,0.3-0.1,0.4c0,0.1-0.2,0.5,0,0.2s0,0.1-0.1,0.1l-0.2,0.3c-0.1,0.2,0.3-0.3,0.1-0.2l-0.1,0.1
			l-0.3,0.3c-0.3,0.3-0.5,0.7-0.8,1.1c-0.5,0.9-0.2,2,0.7,2.6c0.9,0.5,2,0.2,2.6-0.7c0.1-0.2,0.2-0.4,0.4-0.5c-0.4,0.5,0,0,0.1-0.1
			c0.3-0.3,0.6-0.7,0.8-1.1c0.5-0.9,0.7-1.9,0.6-2.9c-0.1-1-0.3-1.9-0.8-2.8c-0.6-0.9-1.5-1.6-2.5-2c-1-0.3-2,0.3-2.3,1.3l0,0
			C653.5,301.9,654.1,302.9,655.1,303.2L655.1,303.2z"/>
		<path class="st1" d="M706.7,148.1c-5.8-13.6-8.7-28.3-8.5-43.1c0-2.3,0.2-4.8,1.3-6.8s3.7-3.5,5.9-2.7s3.2,3.2,4,5.5l10.6,31.3"/>
		<path class="st9" d="M733.2,474.2c-5.5,5.2-4.2,16.3,5.3,13.7C752.6,484,742.7,465.3,733.2,474.2z"/>
		<path class="st9" d="M806.1,295.7c-3,2.9-2.3,9,2.9,7.5C816.8,301.1,811.3,290.8,806.1,295.7z"/>
		<path class="st9" d="M73.3,615.7c-3.6,3.4-2.8,10.7,3.5,9C86,622.1,79.6,609.8,73.3,615.7z"/>
		<path class="st9" d="M40.8,299.6c-4.2,4-3.2,12.4,4,10.4C55.5,307,48,292.7,40.8,299.6z"/>
		<path class="st9" d="M337.6,116.2c-4.2,4-3.2,12.4,4,10.4C352.3,123.6,344.8,109.4,337.6,116.2z"/>
		<path class="st9" d="M639.9,131.7c-4.2,4-3.2,12.4,4,10.4C654.6,139.1,647.1,124.9,639.9,131.7z"/>
		<path class="st9" d="M201.9,1.7c-3.9,3.7-3,11.6,3.8,9.7C215.6,8.6,208.6-4.7,201.9,1.7z"/>
		<path class="st9" d="M268,172.3c-5.5,5.2-4.2,16.3,5.3,13.7C287.4,182,277.5,163.3,268,172.3z"/>
		<path class="st9" d="M701.4,631.4c-2.8,2.6-2.1,8.2,2.7,6.8C711.1,636.3,706.2,626.9,701.4,631.4z"/>
		<path class="st11" d="M116.4,200.5c-4.6-11.9-7.1-24.4-7.5-37.1c-0.1-3.3,0-6.7,1.5-9.6s4.9-5,8-4.1c2.9,0.8,4.6,3.9,5.9,6.6
			c5.2,11.4,8.8,23.4,10.9,35.8c0.3,2,0.7,4.1,1.9,5.8s3.2,2.6,4.9,3.8c8.9,6,13.2,16.8,10.8,27.3c-2.4,9.9-10.7,17.9-11.7,28
			c-0.1,1.2-0.2,2.5-1.1,3.3c-0.8,0.5-1.8,0.8-2.7,0.7l-28.3,1c-4.5-14.3-12.3-27.3-22.9-38c-6.4-6.4-12-13.5-16.7-21.2
			c-2.6-4.3-11.3-18.2-8.7-23.3c4.1-8.1,14.5,2.3,16.7,4.6c5.8,6.3,18.8,21.1,24,29.3c-9.8-13.8-18.6-30.1-21.6-47
			c-0.8-4.5,1.6-8.2,6.3-9c5.9-1,14.6,15.9,18.1,22.6S113.6,193.3,116.4,200.5z"/>
		<path class="st12" d="M135.8,219.7c-1.7-4-3-8.1-4-12.3c-0.5-1.9-0.9-3.8-1-5.8c-0.1-1.1,0.5-2.1,1.5-2.5c2.9-1.1,5.6,1.5,7.4,3.7
			c2.1,2.6,4,5.4,5.8,8.3c1.8,2.8,3.2,5.9,4.1,9.1c0.7,3.3,0.5,6.7-0.5,9.9c-0.8,2.4-2,4.5-3.7,6.4c-0.7,0.8-1.3,1.8-1.8,2.7
			c-3.2,5.9-4.5,12.7-5.3,19.3c0,1.4,1.1,2.5,2.5,2.5s2.5-1.1,2.5-2.5c0.4-3.8,1.2-7.6,2.3-11.3c0.2-0.7,0.4-1.3,0.7-2
			c0.1-0.3,0.2-0.6,0.3-0.8l0.1-0.3c0.3-0.7-0.2,0.4,0.1-0.2c0.4-0.8,0.8-1.7,1.2-2.5c0.3-0.5,0.6-1,0.9-1.4c0.4-0.6-0.4,0.4,0,0
			c2.8-3,4.7-6.7,5.4-10.8c0.8-3.9,0.7-7.9-0.4-11.7c-1.3-3.8-3.1-7.4-5.4-10.7c-3.8-5.8-9.7-15.5-18-12.4c-2.1,0.7-3.8,2.4-4.5,4.5
			c-0.8,2.5-0.2,5.3,0.4,7.8c1.1,5.3,2.8,10.5,5,15.5c0.7,1.2,2.2,1.6,3.4,0.9C136.1,222.4,136.5,220.9,135.8,219.7L135.8,219.7z"/>
		<path class="st5" d="M268.5,417.4c-12.8,29-18.8,60.6-17.4,92.3c1.3,29.1,10.4,60.3,34.1,77.1c10.1,7.2,22.2,11.2,34.2,14.2
			c25.2,6.1,52,7.6,76.8,0s47.2-25.3,56.5-49.5c4.7-12.3,6-25.6,6.2-38.7c0.2-11.4-0.2-22.8-2.9-33.9c-3.1-12.7-9.2-24.5-15.1-36.2
			L417,396.2L268.5,417.4z"/>
		<path class="st13" d="M271.7,480.4c-0.9,3.6-1.7,7.5-2.3,11.1c-1.4,9.1-1.8,18.3-1.2,27.5c0.6,8.8,2,15.6,7.5,22.7
			c5,6.4,11.4,11.7,18.6,15.4c10.5,5.5,22.5,8,34.4,8.6c34,1.6,67.9-13,92.4-36.7c4.1-3.9,8-8.2,10.3-13.4
			c2.4-5.4,2.9-11.4,2.8-17.3c-0.7-26.9-14.9-51.4-28.7-74.5c-1.4-2.4-4.5-5-6.5-3c12.8,18.5,26,38.2,27.3,60.6
			c1.3,23.6-11.7,46.8-30.9,60.7s-43.6,19.3-67.3,18.2c-14.2-0.7-29.1-3.9-39.3-13.7c-8.6-8.2-12.8-20.2-14-32.1
			c-0.6-8.1-0.4-16.3,0.8-24.3c0.5-4,0.4-7.3,1.1-11.3c0.3-1.5,2.2-10.4,0.3-10.9C274.6,467.2,272.1,478.6,271.7,480.4z"/>
		<path class="st13" d="M388.7,450.6c-1.3,8,0.8,15.8,3.1,23.4c2,7,2.5,14.3,1.4,21.5c-1.8,12.5-11.9,22.6-23.2,27.1
			c-6.1,2.4-12.6,3.4-19.1,2.7c-6.8-0.8-13.3-3-19.2-6.5c-12.6-7.2-22.2-18.7-28.6-31.6c-7.5-14.9-14-31.4-17-47.7
			c-0.4-2-0.7-4.1-1.1-6.1c-0.2-1.3,1.1-2.1-0.1-1.8c-1.3,0.4-2.1,1.8-1.8,3.1c2.9,17.1,8.3,44.3,15.3,60.3
			c6.3,14.2,11.8,24,24.8,32.8c12,8.1,29.2,5.1,43.4,1.2c13.1-3.6,27-5.5,31.7-18.5c2.6-7.1,0.4-22.3-1.4-29.5
			c-1.9-7.8-5.2-15.4-5.7-23.4c-0.1-1.9,0-3.8,0.3-5.6c0.3-1.3-0.4-2.7-1.8-3.1c-1.3-0.4-2.7,0.4-3.1,1.8L388.7,450.6z"/>
		<path class="st5" d="M354.7,277.4c-11.1,0.6-21.9-3.6-29.7-11.5c-7.7-8-12-18.6-12.2-29.7c-0.1-4.6,0.5-9.1,1.9-13.4
			c5.4-16.3,23.7-27,40.6-24.2s30.7,18.3,32,35.4s-9.5,34.3-25.3,40.9"/>
		<path class="st11" d="M407.3,385.2c3.7-2.5,7.4-5.1,11.7-6.5c12.2-3.9,18.9,7.2,20.5,17.8c2.6,17-18.7,32.2-35.1,30.8L407.3,385.2
			z"/>
		<path class="st11" d="M278.4,429.1c-9.5-4.2-14.6-11.4-20.3-20.4c-2.7-4.7-4.6-9.8-5.4-15.1c-2.1-11.3,6.9-23.4,18.8-16.7
			c4.2,2.3,7.1,6.4,9.2,10.7L278.4,429.1z"/>
		<path class="st11" d="M363.5,504c-2.9-8.8-4.2-15.8-5.9-25c-0.1-0.5-0.2-1-0.7-1.1c-0.2,0-0.4,0-0.6,0c-7.7,0.7-21.5,1.4-29.2,2.1
			c-1.4,8.1-3.5,16-6.5,23.7L363.5,504z"/>
		<path class="st14" d="M171.7,267c-43.5-7.7-64.7-14.8-116.8-20.4c6.4,66.7,6.4,73.7,21.3,164.5c7,42.4,11.5,63.8,33.4,100.8
			c32.4,54.8,74.6,87.6,134.6,108.7l-1,75.5h249.4c-6.4-37.8-35-117-72.8-150.4c-14.9-13.2-31.9-21.5-35.2-42.8
			c-0.1-0.4-0.5-0.7-0.9-0.7l-70.3-0.3c-1.9,0.7-4,11.1-5,13.1c-11.4,24-41.6,34.2-63.7,18.8c-9.9-6.9-17.3-24.1-22.6-34.3
			c-19.2-36.4-30.8-76.4-37.7-116.8C182.3,370.7,171.9,267,171.7,267z"/>
		<path class="st15" d="M410.5,611.6c4.9,13.3,9.5,26.8,13.2,40.5c2.7,9.9,4.7,20,6.1,30.2v0.2c0-0.2,0,0.3,0,0.3
			c0,0.4,0.1,0.7,0.1,1.1c0.1,0.6,0.2,1.2,0.2,1.9c0.2,1.3,0.3,2.5,0.4,3.8c0.3,2.5,0.5,5.1,0.7,7.6c0,1.4,1.1,2.5,2.5,2.5
			s2.5-1.1,2.5-2.5c-0.8-9.5-2-18.9-3.7-28.3c-2.2-11.5-5.1-22.8-8.7-33.9c-2.6-8.3-5.5-16.6-8.6-24.8c-0.4-1.3-1.7-2.1-3.1-1.7
			C410.9,608.9,410.2,610.2,410.5,611.6L410.5,611.6z"/>
		<path class="st15" d="M244.8,625.8c19.8,2,39.8-2.5,56.9-12.7c2.8-1.7,0.2-6-2.5-4.3c-16.3,9.8-35.4,14-54.3,12
			c-1.4,0-2.5,1.1-2.5,2.5C242.3,624.6,243.4,625.7,244.8,625.8L244.8,625.8z"/>
		<polygon class="st15" points="259.9,623.8 259.9,697.2 242.4,698.8 241.8,620.3 		"/>
		<path class="st16" d="M141.7,555.6c2.9-12.8,4.1-25.9,5.5-38.9c1.7-16.1,2.3-31.4-4-46.7c-5.9-14.5-17.4-18.5-32.1-20.4
			c-8.1-1-19.4-4.4-27.4-5.9C83.7,443.7,93.7,507.5,141.7,555.6z"/>
		<path class="st5" d="M411,421c7.2-0.8,13.7-4.6,18-10.3c4.5-5.8,7.2-14.2,2.2-20.5c-2.3-3.1-6.2-4.7-10-4.1
			c-1,0.3-1.6,1.3-1.3,2.3c0.3,1,1.3,1.6,2.3,1.3c3.1-0.5,5.9,1.9,7.1,4.5c1.7,3.4,0.6,7.6-1.1,10.8c-3.4,6.3-9.9,11.5-17.2,12.2
			c-1,0-1.8,0.8-1.9,1.9C409.2,420.1,410,421,411,421z"/>
		<path class="st5" d="M411,411.7c3-0.4,5.8-1.6,8-3.7c2.1-1.9,4-4.6,3.9-7.6c-0.1-1.9-0.9-3.6-2.2-4.9c-0.7-0.7-1.9-0.8-2.7,0
			s-0.8,1.9,0,2.7l0,0c0.2,0.2,0.3,0.3,0.5,0.5c-0.2-0.3,0.1,0.2,0.2,0.3s0.1,0.3,0.2,0.4s0.1,0.2,0,0c0,0.1,0.1,0.2,0.1,0.3
			c0.1,0.2,0.1,0.4,0.1,0.5s0,0.5,0,0c0,0.4,0,0.7,0,1.1c0-0.5,0-0.1,0,0s-0.1,0.4-0.1,0.5s-0.1,0.4-0.2,0.5c0.2-0.5,0,0,0,0.1
			c-0.2,0.3-0.4,0.7-0.6,1l-0.3,0.4c0.3-0.4-0.1,0.1-0.2,0.2c-0.5,0.6-1.1,1.1-1.7,1.6c-0.3,0.3,0.2-0.1-0.1,0.1l-0.5,0.4
			c-0.3,0.2-0.6,0.4-0.9,0.6s-0.7,0.4-1.1,0.6c-0.1,0-0.5,0.2-0.1,0l-0.5,0.2c-0.3,0.1-0.6,0.2-1,0.3c-0.2,0-0.3,0.1-0.5,0.1
			c-0.3,0.1,0.4,0-0.1,0c-1,0-1.8,0.9-1.9,1.9c0,1,0.8,1.9,1.9,1.9H411z"/>
		<path class="st5" d="M267.5,384.1c-3.5-1.1-6.8,1.3-8.1,4.5c-1.4,3.5-0.9,7.8,0,11.3c2.1,7.8,7.3,14,12.4,20
			c1.6,1.8,4.2-0.8,2.6-2.6c-4.1-4.8-8.4-9.8-10.6-15.8c-1.1-2.9-1.6-5.9-1.5-9c0.1-2.1,1.3-5.6,4.1-4.8
			C268.8,388.4,269.8,384.8,267.5,384.1L267.5,384.1z"/>
		<path class="st12" d="M326.5,483.6c0,0-1.6,7-2.4,9.7c12.7,1.2,24.3-4.6,33.7-13.2C357.9,480.1,331.8,484.3,326.5,483.6z"/>
		<path class="st11" d="M273.4,340.3c-7.3,31.3-6.1,66.2,6.4,96.1c11.3,26.9,37.5,56.8,69.9,46.9c29.5-9.1,52.8-42,61.1-70.5
			c12.9-44.4,8-111.1-32.2-140.7c-37.9-27.9-89.3,19.4-101.2,54.3C275.8,330.9,274.5,335.6,273.4,340.3z"/>
		<path class="st5" d="M337.9,266c-4.3,52.4,29.2,111.6,75.4,136.6c11.5-18.2,12-44.7,12-66.2c0-16.6-1.5-33.7-8.9-48.5
			c-11.2-22.2-36-36.7-60.9-35.6L337.9,266z"/>
		<path class="st5" d="M274,411c30.5-29.3,59.8-81.2,67.7-125c1.7-9.6-1.3-22.4,0-32c-27.7,6.4-50.7,27.7-62.7,53.4
			s-12,75.8-6.7,103.7"/>
		<path class="st13" d="M357.3,287.3c0,1.5,0,3.1,0.2,4.6c0.8,9,3.9,17.5,7.3,25.8c8,19.1,18.5,37.5,33.2,52.1
			c1.5,1.5,3.4,3.5,5.5,4c-0.7-1.7-1.5-3.4-2.3-5.1c-1.6-2.1-3.3-4.1-5.2-5.9c-11.8-12.7-20.1-28.5-25.2-45.1
			c-4-13.4-6.2-27.2-6.7-41.2c-0.1-1.6,1.4-10.1-1.4-9.2c-1.5,0.5-2.7,5.1-3.2,6.5C358.1,278.2,357.3,282.7,357.3,287.3z"/>
		<path class="st13" d="M392.1,335.3c4.8,5.1,6,13.5,8.8,19.9c0.8,1.8,7.5,2,8.4,0.6c6.6-10.4,8.6-32.6,7.3-38.5
			s-8.9-23.4-17.3-32.2c-4.8-5-19.8-18.2-22.5-15.4c-1.7,1.7,0.5,6.8,3.6,14.2c3.8,9.1,3.2,21.9,14.3,31.6c1,0.9,7.7,7,9.4,2.6
			c0.5-1.2-4.9-5.3-5.9-6.2c-10.2-9-15.5-22.3-14.1-35.8l-3.2,2.4c10.2,4.1,22.7,14.1,27.7,23.8s6.5,18.2,4.9,29
			c-1,6.3-6.7,13.6-10.1,18.9h4.3c-3-6.8-16.8-21.2-21.9-26.6C383.7,321.1,389.9,332.9,392.1,335.3z"/>
		<path class="st13" d="M293.9,351.4c6.3-4.4,11.8-10,16.3-16.3c5.6-8,8.9-17.3,11.8-26.6c3.2-9.7,5.5-19.6,7-29.6
			c0.2-0.8,0.1-1.7-0.3-2.4c-0.6-0.9-2-0.9-3.1-0.8c-7.1,0.9-13.7,4.6-18.9,9.5s-9.1,11.1-12.4,17.5c-3,5.9-5.5,12.6-3.5,18.9
			c0.1,0.5,0.4,1,0.9,1.1c0.8,0.2,1.4-0.8,1.6-1.6c0.9-3.4,1.7-6.9,2.9-10.2c5-14.3,16.8-25.5,31-30.7c-1-0.8,0.1-1.9-0.9-2.7
			c-2.3,23.2-15.1,45.8-31.1,62.6c-3.7,3.9-8.1,7.1-12.3,10.4c-1.8,1.3-3.6,2.8-5.2,4.4c-0.7,0.7-4.5,5.7-1.5,5
			C282.6,358.1,288.6,355.3,293.9,351.4z"/>
		<path class="st5" d="M348.6,354.5c2.6,1.4,6.1,2.1,8.2,3.2c8.5,4.3,16.9,15.1,23.6,21.7c3.6,3.5,5.7,5.2,8.4,4.4s0.6-5.1-0.6-7.6
			c-2.7-5.2-6.1-9.9-10.1-14.1c-4.3-4.6-9.2-8.6-14.6-11.9c-3.9-2.3-12.8-8-17-4.1C343.4,348.9,345.4,352.8,348.6,354.5z"/>
		<path class="st11" d="M451.8,680.2c-0.7-3.8,0.3-7.7,2.8-10.7c2.5-2.9,5.8-5,9.5-6.1c2.2-0.9,4.6-1.1,7-0.7
			c4.9,1.2,7.6,6.3,9.3,11c2.4,6.8,4,14,4.7,21.2c0.3,3.2,0.5,6.6-0.6,9.6s-3.7,5.8-6.9,6.1s-6.2-1.6-8.2-4.2s-2.9-5.7-4.1-8.6
			c-0.2-0.7-0.6-1.3-1.1-1.8c-0.7-0.4-1.6-0.6-2.4-0.5l-18.7,0.2c-4.7,0-9.9-0.1-13.3-3.3c-2.3-2.1-3.4-5.3-4.3-8.3
			c-1.2-3-1.8-6.1-2-9.3c0-3.2,1.2-6.5,3.9-8.4c2.7-1.7,6-1.9,8.9-0.6c2.8,1.3,5.2,3.4,7,5.9L451.8,680.2z"/>
		<path class="st11" d="M479.7,676c-2.4-7.5,5.9-16,13.3-13c11.8,4.8,14,27.8,10.7,38.1c-2.6,8.3-11.5,7-16.2-1.5
			c-1.7-3.1-4-6-5.1-9.4"/>
		<path class="st11" d="M503.2,694.7c1.5,3.9,4.2,7.1,7.7,9.3c3.3,2,8.1,1.8,10.5-1.3c1.6-2.1,1.8-5,1.7-7.7
			c-0.4-9.4-2.6-18.7-6.5-27.3c-0.9-2-2-4-3.8-5c-2.5-1.5-6-0.7-8.1,1.4s-6.2,5-6.5,8L503.2,694.7z"/>
		<path class="st12" d="M460.6,686.2c0.5,4,1.4,8,2.6,11.9c1,3.8,2.6,7.5,4.5,10.9c1.9,3,5,5.4,8.7,5.2c3.6-0.3,6.8-2.2,8.8-5.2
			c2.5-3.7,2.7-8.5,2.1-12.7c0-1.4-1.1-2.5-2.5-2.5s-2.5,1.1-2.5,2.5c0.4,3.5,0.6,7.8-1.9,10.7c-1.9,2.1-5,3.2-7.3,1
			c-1.2-1.3-2.1-2.8-2.7-4.4c-0.8-1.9-1.6-3.8-2.2-5.8c-1.4-4.2-2.4-8.6-3-13c-0.4-1.3-1.7-2.1-3.1-1.8
			C461,683.6,460.3,684.9,460.6,686.2L460.6,686.2z"/>
		<path class="st12" d="M480.4,682.2c0.2,5,1.1,10,2.7,14.8c1.5,4.3,3.6,8.8,7.8,10.9c3.9,2,8.7,1.2,11.8-1.9
			c3.4-3.2,4.4-8,4.1-12.5c-0.4-5.8-1.9-11.5-3-17.2c-0.4-1.3-1.7-2.1-3.1-1.8c-1.3,0.4-2.1,1.8-1.8,3.1c0.8,4.2,1.7,8.3,2.4,12.5
			c0.6,3.5,1,7.5-1,10.7c-1.4,2.3-4,3.9-6.7,2.8c-3.2-1.3-4.7-4.8-5.8-7.8c-1.5-4.4-2.4-9-2.6-13.7C485.3,679,480.3,679,480.4,682.2
			L480.4,682.2z"/>
		<path class="st12" d="M501.5,686.8c-0.2,5.3,0.8,10.7,2.9,15.5c1.9,4,5.6,7.7,10.4,7.1c5-0.6,8.4-5.1,9.2-9.8
			c0.9-5.3-0.2-11-1.2-16.2c-1.2-6-3-11.8-5.4-17.3c-0.7-1.2-2.2-1.6-3.4-0.9c-1.2,0.7-1.6,2.2-0.9,3.4c3.5,8.2,5.6,16.9,6.2,25.7
			c0.2,3.5-0.1,7.7-3.5,9.7c-3,1.7-5.4-1.1-6.6-3.5c-2-4.3-2.9-9-2.6-13.7C506.6,683.5,501.6,683.5,501.5,686.8L501.5,686.8z"/>
		<rect x="133.4" y="691" class="st15" width="637.9" height="27.3"/>
		<rect x="156.4" y="718.6" class="st16" width="596.5" height="81"/>
		<path class="st5" d="M572.1,275.6c-3.3,2.6-3.1,8.5-3,13.2c-0.1,1.4,0.1,2.9,0.6,4.2c1.6,3.6,6.7,2.6,8.6-0.9
			C580.2,288.4,579.7,269.4,572.1,275.6z"/>
		<path class="st5" d="M612.4,273.7c-0.6,0.4-1.1,0.9-1.5,1.4c-0.9,1.5-1.4,3.1-1.6,4.9c-0.5,3.7-0.5,18,7.1,12.2
			c1.9-1.4,2.7-3.8,3.1-6.1c0.4-2.4,0.4-4.8,0.1-7.2c-0.4-2.6-1.7-5.6-4.3-6C614.3,272.8,613.2,273.1,612.4,273.7z"/>
		<path class="st17" d="M533.3,248.4v-19.6c0-1.6-1.3-2.9-2.9-2.9s-2.9,1.3-2.9,2.9v19.6c0,1.6,1.3,2.9,2.9,2.9
			S533.3,250,533.3,248.4z"/>
		<path class="st17" d="M554.8,246.7v-30.4c0-3.7-5.8-3.7-5.8,0v30.4C549,250.4,554.8,250.4,554.8,246.7z"/>
		<path class="st17" d="M576.9,237.6v-29.1c0-3.7-5.8-3.7-5.8,0v29.1C571.1,241.4,576.9,241.4,576.9,237.6z"/>
		<path class="st17" d="M598.4,236.8v-32.9c0-3.7-5.8-3.7-5.8,0v32.9C592.6,240.5,598.4,240.5,598.4,236.8z"/>
		<path class="st17" d="M618.6,228.6v-22.1c0-3.7-5.8-3.7-5.8,0v22.1C612.8,232.3,618.6,232.3,618.6,228.6z"/>
		<path class="st17" d="M636.9,226.5v-24c0-3.7-5.8-3.7-5.8,0v24C631.1,230.2,636.9,230.2,636.9,226.5z"/>
		<path class="st17" d="M651.7,218.7v-15.8c0-1.6-1.3-2.9-2.9-2.9s-2.9,1.3-2.9,2.9v15.8c0,1.6,1.3,2.9,2.9,2.9
			S651.7,220.3,651.7,218.7L651.7,218.7z"/>
		<path class="st17" d="M537,218.2l95.6-24.6c0.4,0.3-3.9-3.6-8.2-6.8L537,218.2z"/>
		<polygon class="st13" points="710.6,162.4 740.1,160.8 737.8,168.1 		"/>
		<path class="st5" d="M340.6,374.6c0.6,4.1,1.5,8.2,2.6,12.2c1.4,4.9,3.1,10.1,6.3,14.2c2.8,3.6,7.5,5.8,11.5,2.5
			c3.7-3,4.7-8.8,5.3-13.2c0.8-5.2,0.9-10.5,0.4-15.7c0-1.4-1.1-2.5-2.5-2.5s-2.5,1.1-2.5,2.5c0.4,4.1,0.4,8.1,0,12.2
			c-0.2,2.3-0.5,4.6-1.1,6.9c-0.3,1.9-1.1,3.8-2.2,5.4c-0.3,0.4,0.2-0.2-0.1,0.1l-0.4,0.5c-0.1,0.1-0.5,0.4-0.2,0.2
			s-0.3,0.1-0.4,0.2c-0.4,0.3,0.1,0,0,0l-0.6,0.2c-0.4,0.1,0.4,0,0,0c-0.2,0-0.4,0-0.7,0c0.7,0-0.2-0.1-0.5-0.2s0.2,0.1,0.2,0.1
			s-0.2-0.1-0.3-0.2l-0.5-0.3c-0.5-0.3,0.2,0.2-0.1-0.1c-0.1-0.1-0.3-0.2-0.4-0.4c-0.4-0.3-0.7-0.6-1-1s-0.1-0.1,0,0l-0.2-0.3
			l-0.5-0.6c-0.3-0.5-0.6-0.9-0.8-1.4c-0.6-1-1.1-2-1.5-3.1c-0.1-0.3,0-0.1,0,0c-0.1-0.1-0.1-0.2-0.2-0.4l-0.3-0.9
			c-0.2-0.6-0.4-1.2-0.6-1.8c-0.4-1.2-0.8-2.4-1.1-3.5c-1.2-4.2-2.2-8.5-2.8-12.9c-0.2-1.3-1.9-2.1-3.1-1.7
			C341,371.9,340.3,373.3,340.6,374.6L340.6,374.6z"/>
		<path class="st5" d="M344.5,454.2c10.6-1.2,19.9-7.8,24.6-17.4c0.7-1.2,0.3-2.7-0.9-3.4c-1.2-0.7-2.7-0.3-3.4,0.9
			c-3.8,8.1-11.4,13.7-20.3,14.9c-1.4,0-2.5,1.1-2.5,2.5C342,453.1,343.1,454.2,344.5,454.2z"/>
		<path class="st5" d="M297.8,379.3c0,7.9,1.7,16.6,6.3,23.2c2.2,3.2,5.7,6.5,10,5c4.6-1.5,5.8-7,6.5-11.2c0.9-5.6,0.6-11.3,0.7-17
			c0-3.2-5-3.2-5,0c0,4.3,0.2,8.6-0.2,12.8c-0.1,2-0.5,4.1-1,6.1c-0.4,1.5-0.8,3.4-2,4.3c0.2-0.2-0.5,0.3-0.4,0.2s-0.8,0.2-0.3,0.1
			c-0.5,0.1-0.9,0-1.3-0.2c-1.2-0.8-2.2-1.8-2.9-3.1c-1.8-2.8-3.2-5.9-4-9.2c-0.9-3.6-1.4-7.3-1.4-11
			C302.7,376.1,297.7,376.1,297.8,379.3L297.8,379.3z"/>
		<path class="st6" d="M331.4,402.9c-1.2,3.5-1.9,7-2.4,10.6c-0.7,4.7-2,9.3-1.9,14.1c0.1,3,1.5,7.5,4.9,8.2
			c3.6,0.7,9.2-4.4,11.9-6.3c1.9-1.4,3.9-2.9,4.6-5.2c1.4-5-0.9-10.8-3.1-15.2c-1.6-3.3-4.5-9.2-8.2-10.6
			C334.5,397.3,332.6,399.7,331.4,402.9z"/>
		<path class="st5" d="M316,348.4c-6.8,1.9-12.9,5.5-17.9,10.6c-2,1.9-2,5.1-0.1,7.1s5.1,2,7.1,0.1l0.1-0.1c1.1-1.2,2.4-2.3,3.7-3.3
			l-1,0.8c2.4-1.8,5-3.4,7.8-4.6l-1.2,0.5c1.4-0.6,2.7-1.1,4.2-1.5c2.7-0.7,4.2-3.5,3.5-6.1C321.4,349.2,318.7,347.6,316,348.4
			L316,348.4z"/>
		<g>
			<g>
				<g>
					<defs>
						<rect id="SVGID_1_" x="-6.5" y="606.1" width="962.5" height="336.9"/>
					</defs>
					<clipPath id="SVGID_2_">
						<use xlink:href="#SVGID_1_"  style="overflow:visible;"/>
					</clipPath>
					<g class="st18">
						<path class="st0" d="M831.9,931.4c13-16.2,22.8-34.6,31.9-53.1c15.6-31.4,29.7-63.5,42.3-96.2c15-38.9,28.1-79.7,26.2-121.3
							c-0.7-14.2-3.8-29.6-14.9-38.5c-16-12.7-39.6-5.5-57.2,4.8c-25,14.7-46.6,34.7-67.6,54.8c-71.3,68.3-163,161.1-198.2,253.3"/>
						<path class="st4" d="M729,937.4c18.1-17.3,24.4-19.6,40.7-38.7s31.7-39,46.1-59.6s27.7-41.8,40-63.6s23.5-44.3,33.5-67.2
							s19-46.5,26.7-70.4c1-3,1.9-6,2.8-9c1.2-3.8-4.8-5.1-6-1.3c-7.4,23.7-15.9,47.1-25.7,70c-9.7,22.9-20.5,45.2-32.5,67.1
							c-11.9,21.8-24.9,43.1-39,63.8c-13.9,20.5-28.9,40.3-44.8,59.3s-32.8,37.3-50.6,54.8c-2.2,2.2,6.5-11.5,4.2-9.4
							c-2.9,2.7-4.4,6.5-1.6,3.8L729,937.4z"/>
						<path class="st4" d="M888.5,709.4c9.6-10.2,11.5-12.7,22.7-21c1.3-1,16.2-11.4,15.2-12.9s-12.1,4.3-13.4,5.3
							c-11.6,8.6-19.1,13.8-29.1,24.4C881.2,708.1,885.7,712.2,888.5,709.4L888.5,709.4z"/>
						<path class="st4" d="M854.8,777.7c11.8-14.2,16.5-19.5,30.2-31.8c1.2-1.1,17.6-13,16.5-14.1c-1.3-1.2-9.3,3.3-10.8,4.1
							c-24.6,14.6-28.7,23.4-40.5,37.6C847.8,776.5,852.3,780.8,854.8,777.7L854.8,777.7z"/>
						<path class="st4" d="M826.3,823.8c15.1-16.2,30.9-31.6,47.5-46.3c4.7-4.1,4.6-4.2,9.4-8.1c1.3-1.1,9.8-9.3,8.8-10.8
							c-0.8-1.3-13.2,6.6-14.5,7.7c-17.3,14.4-26.7,23.5-42.5,39.5c-4.5,4.5-8.9,9.2-13.2,13.8C819,822.5,823.6,826.6,826.3,823.8
							L826.3,823.8z"/>
						<path class="st4" d="M797.7,862.6c17.8-8.3,41.4-22.2,57.1-34.2c24.9-19,4.3-11-3.3-5.2c-15.2,11.6-32.4,20.4-49.8,28.5
							c-1.6,0.6-2.5,2.3-2,3.9c0.5,1.4-2.7,4.1-1.2,3.4L797.7,862.6z"/>
						<path class="st19" d="M275.4,957c-18.5-9.3-34.9-25.1-45.8-43.9c-5.3-9.2-9.4-19.6-9.1-29.5s5.9-19,15-20.3
							c7.7-1.1,16.1,3.3,24.2,3.9c8.1,0.6,16.7-6.3,12.7-14.4c-1.5-3-4.3-5.1-7-6.9c-13.6-8.8-28.9-13.2-42.2-22.8
							s-24.5-27.7-19.1-41.1s23.8-13.8,38.5-8.2c3.1,1.2,6.4,2.6,9.4,2.5c9.8-0.5,18.9-8.5,10.3-15.8
							c-18.2-15.4-34.4-23.2-42.9-38.3c-8.1-14.3-3.9-35.4,7.1-43.5c17.2-12.6,43.1,2.8,53.2,15.8c4.6,5.9,7.8,13.4,13.9,17.3
							c17.1,10.9,30.3-18,48.8-13c11.5,3,18.5,18.5,17.1,30.2s-8.6,20.6-15.1,29.3c-5,6.7-9.9,14.2-11.6,22.8
							c-0.7,3.4,1.6,6.7,4.9,7.3c1.1,0.2,2.1,0.1,3.2-0.2c19.4-6.7,28.3-42.3,50.9-34.2c12.2,4.4,19.2,20.7,17.6,33.2
							s-9.2,22.1-16.5,31l-25.5,31c-2,2.4-1.7,6,0.7,8.1c0.5,0.5,1.2,0.8,1.9,1c5.2,1.6,12.1-0.9,15.9-4.9
							c5.6-5.9,12.1-13.9,20.6-10.2c4,1.7,7,5.7,9.4,9.7c10.7,19,11.5,42,2.1,61.7c-8.7,17.7-24.4,32.7-41.5,41.2L275.4,957z"/>
						<path class="st20" d="M103.9,958.8c-15.9,0.5-47.7-50.9-64.4-77.3c-20.6-32.5-19.8-56.2-27-85c-6-24-4.3-53.1,11.5-73.6
							c18.5-24.1,53.8-31.7,82.5-27.7c52.1,7.3,96,44.5,126.8,85.2c9.5,12.6,107.5,174.5,94.9,178.4
							C328.2,958.8,223.9,954.7,103.9,958.8z"/>
						<path class="st20" d="M353.8,954.4c-5.8-56.2,26.9-109.8,67.4-149.1c44.8-43.3,102.3-75.5,164.3-81.6
							c6.1-0.6,12.5-0.9,18.2,1.4c17.7,7.2,16.9,32.3,13,51c18-8.7,41.6-16.7,56.1-2.9c4.4,4.2,7.1,9.9,8.7,15.7
							c10,35.2-16,69.6-40.2,97.1c27.4-30.5,60.5-56.9,99-70.8s83.2-13.9,119.2,5.7s61,80.6,56.1,121.3L353.8,954.4z"/>
						<path class="st21" d="M358.8,954.4c0.1-20.1,3.1-40.1,9-59.3c5.6-18.2,14.3-35.3,25.7-50.6c2.5-3.3,5.2-6.7,8.2-10.2
							s6.1-7,9.3-10.3c6.4-6.8,13-13.3,19.9-19.6c6.5-6.1,13.3-11.9,20.2-17.5c6.6-5.3,13.8-10.5,21.2-15.5s15-9.5,22.9-13.8
							c3.9-2.1,7.9-4.1,12-6c4.2-2,7.7-3.5,11.6-5.1c8.2-3.3,16.6-6.1,25.1-8.4c4.3-1.2,8.7-2.2,13.1-3c2.3-0.4,4.5-0.8,6.8-1.2
							c1-0.2,2.1-0.3,3.1-0.5l1.6-0.2c-0.1,0-0.6,0.1,0,0l1-0.1c4.5-0.6,9-1,13.5-1.2c2.2-0.1,4.5-0.2,6.7-0.2c1,0,2,0,3,0
							c0.5,0,1,0,1.6,0.1c0.3,0,1.6,0.2,1.1,0.1s0.7,0.1,0.8,0.2c0.4,0.1,0.8,0.2,1.3,0.3c0.9,0.2,1.8,0.4,2.7,0.7
							c0.4,0.1,0.8,0.3,1.2,0.4s1.2,0.5,0.4,0.1c0.8,0.4,1.6,0.8,2.4,1.2s1.5,0.9,2.3,1.4l1,0.7l0.1,0.1c-0.5-0.4,0.2,0.2,0.3,0.2
							c1.3,1.1,2.5,2.3,3.6,3.6c0.2,0.3,0.8,1,0.2,0.3c0.2,0.3,0.5,0.7,0.7,1c0.5,0.8,1.1,1.6,1.5,2.5s0.8,1.5,1.2,2.2
							c0.2,0.3,0.5,1.2,0.2,0.4c0.2,0.5,0.4,0.9,0.5,1.4c0.6,1.7,1.1,3.5,1.4,5.3c0.1,0.5,0.2,1,0.3,1.6s0-0.1,0-0.2l0.1,0.7
							c0.1,1,0.2,2.1,0.2,3.1c0.1,2,0.1,4,0,5.9c-0.1,1-0.2,1.9-0.2,2.8l-0.1,0.7c0-0.2,0.1-0.9,0,0.1c-0.1,0.5-0.2,1.1-0.3,1.6
							c-0.7,3.9-1.8,7.7-3.2,11.4c-0.4,1-0.7,1.9-1.1,2.9c0.3-0.7-0.2,0.4-0.3,0.6c-0.2,0.5-0.5,1-0.7,1.5c-0.9,1.8-1.8,3.7-2.8,5.5
							c-2,3.7-4.3,7.3-6.7,10.8c-4.7,6.8-9.9,13.3-15.5,19.4c-11.2,12.6-22.8,25.1-35.5,36.2c-6.7,5.9-13.9,11.4-21.4,16.3
							c-7.6,5.1-15.6,9.4-23.9,13c-8.2,3.4-16.7,5.8-25.5,7.2h-0.2l-0.8,0.1l-1.6,0.2c-1.1,0.1-2.2,0.2-3.3,0.2
							c-0.9,0-1.8,0-2.7-0.1s0.6,0.2-0.3,0c-0.4-0.1-0.9-0.2-1.3-0.3s-0.7-0.2-1-0.3c-0.2,0-0.3-0.1-0.5-0.2c0,0,0.9,0.4,0.4,0.2
							s-0.7-0.3-1-0.5s-1.1-0.8-0.5-0.3s-0.2-0.2-0.3-0.3s-0.4-0.5-0.6-0.7c-0.5-0.3,0.4,0.4,0.3,0.4s-0.2-0.3-0.2-0.4
							c-0.2-0.3-0.4-0.6-0.5-0.9c-0.5-0.9-0.1,0.1,0,0.1c-0.1-0.3-0.2-0.6-0.3-0.9c-0.1-0.3-0.1-0.6-0.2-0.9c-0.2-0.8,0,1.1,0-0.1
							c0-0.7,0-1.4,0-2.1c0-0.2,0-0.3,0-0.5c0-0.6,0,0.5-0.1,0.5s0.2-1,0.2-1.2c0.2-0.7,0.4-1.4,0.6-2.1c0.1-0.2,0.5-1.2,0.2-0.7
							s0.3-0.6,0.4-0.8c0.4-0.7,0.8-1.5,1.2-2.2c0.3-0.4,0.5-0.8,0.8-1.2l0.4-0.5c-0.4,0.5-0.1,0.2,0.1-0.1
							c5.8-7.4,12-14.4,18.5-21.2s13.4-13.3,20.6-19.5c3.6-3.1,7.2-6.1,11-9c1.7-1.3,3-2.3,5-3.8s3.7-2.8,5.6-4.1
							c16.1-11.5,33.2-21.5,51.1-29.8c9.1-4.3,18.2-7.9,27.7-11.3c9.7-3.5,19.5-7,29.7-9.3c4.6-1.1,9.3-1.8,14-2
							c1.9-0.1,3.9-0.1,5.8,0.1c0.5,0,0.9,0,1.4,0.1l0.7,0.1c-0.1,0-0.7-0.1-0.2,0c1,0.2,2,0.3,3,0.5s2,0.5,3,0.8
							c0.5,0.1,0.9,0.3,1.3,0.5c0.2,0.1,1.5,0.6,0.8,0.3c1.8,0.8,3.4,1.7,5,2.9c0.5,0.3,0,0-0.1-0.1l0.5,0.5c0.3,0.3,0.7,0.6,1,0.9
							s0.7,0.7,1,1c0.1,0.1,0.2,0.3,0.3,0.4c0.7,0.7-0.5-0.7-0.1-0.2c0.7,1,1.4,2.1,2,3.2c0.2,0.3,0.3,0.5,0.4,0.8
							c0,0-0.4-1-0.2-0.5c0,0.2,0.1,0.3,0.2,0.4c0.2,0.7,0.5,1.3,0.7,2c0.4,1.4,0.8,2.8,1,4.3c0.2,1,0-0.3,0,0.1l0.1,1.1
							c0.1,0.8,0.1,1.6,0.2,2.4c0.1,1.6,0.1,3.3,0,4.9s-0.2,3.3-0.3,4.9c-0.1,0.8-0.2,1.6-0.3,2.4c-0.1,0.6,0-0.3,0-0.3l-0.1,0.6
							c-0.1,0.5-0.1,1-0.2,1.4c-0.6,3.5-1.3,7-2.2,10.4s-1.9,6.8-3,10.1c-0.5,1.6-1.1,3.1-1.7,4.7c-0.3,0.8-0.6,1.6-0.9,2.3l-0.4,1
							c-0.1,0.2-0.6,1.4-0.3,0.8l-0.2,0.6c-0.2,0.3-0.3,0.7-0.4,1c-0.3,0.7-0.6,1.4-0.9,2.1c-0.6,1.3-1.2,2.5-1.9,3.8
							c-1,2-2.2,4-3.5,5.9c-5.4,8-11,15.1-17,22.4c-6.2,7.5-12.7,14.7-19.5,21.7c-6.7,6.8-15.2,17.1-23.6,25.5
							c-1.9,1.9-10.4,10-8.6,11.8c2,2,16.2-9,18.3-10.7c15.5-13.2,29.6-27.8,42.4-43.7c6.1-7.3,11.9-15,17.2-23
							c3.1-5.1,5.8-10.5,7.9-16.2c5.3-13.2,9.4-27.9,9.2-42.2c-0.1-6.6-1.1-13.5-4.5-19.2c-4.2-7.3-12.1-11.7-20.2-13.5
							c-9.7-2.1-19.7-1-29.3,1.1c-10.4,2.2-20.5,5.9-30.5,9.5c-20.2,7.3-39.8,16.4-58.3,27.3c-17,9.8-33.1,21.5-48,34.6
							c-7.3,6.4-14.3,13.2-21,20.3c-3.3,3.6-6.6,7.3-9.8,11c-3.2,3.6-6.2,7.4-9,11.4c-4,6.2-6,14.4-2.5,21.3
							c3.8,7.4,12.7,9,20.3,8.2c19.4-2,37.7-9.6,54.1-20c16.2-10.3,30.8-23.1,44-37c12-12.6,24.1-25.3,34.1-39.5
							s17.9-30.9,17.6-48.5c-0.2-8.4-2.1-16.9-7.1-23.8c-4.7-6.7-11.6-11.5-19.4-13.7c-4.3-1-8.6-1.5-13-1.3
							c-4.7,0.1-9.3,0.4-13.9,0.8c-9.6,0.9-19.1,2.5-28.4,4.8c-18.2,4.5-35.8,11.3-52.4,20.1c-16.6,8.7-32.4,19-47.1,30.7
							c-14.8,11.7-28.8,24.5-41.8,38.3c-13.4,14.1-25.5,29.5-34.5,46.7c-9.6,18.9-16,39.3-18.9,60.3c-1.5,10.4-2.3,20.8-2.5,31.3
							c0,2.8,2.2,5,5,5C356.5,959.3,358.7,957.1,358.8,954.4L358.8,954.4z"/>
						<path class="st21" d="M84.7,776.7l3.6,5c4.1,5.8,8.3,11.5,12.5,17.2c11.6,15.5,4.8,6.2,16.6,21.6c12,15.6,24.1,31.2,36.4,46.6
							c12,15.2,24.1,30.3,36.4,45.3c12.3,15,24.7,30,37.2,44.9l4.7,5.5c1.7,2,5.4,1.9,7.1,0c1.9-2,1.9-5.1,0-7.1
							C226.7,940.9,214.3,926,202,911s-24.5-30.1-36.5-45.2c-6-7.5-12-15.1-17.9-22.7c-5.4-6.9-11.1-14.2-16.6-21.3l-0.6-0.8
							c-0.2-0.2-0.4-0.5-0.1-0.1c-11.8-15.3-23.6-30.8-35.2-46.3c-4-5.3-35.5-53.4-42-49.2C49.7,727.8,74.7,762.8,84.7,776.7z"/>
						<path class="st21" d="M166.3,864.5c-0.2-9.1-0.4-18.1-0.6-27.2c-0.3-12.3-0.5-24.7-0.7-37c-0.1-7.1,0.2-21.2-4.8-27.9
							c-2.9-4-4.8,13.6-4.9,15c-0.6,9.8,0.3,42.1,0.5,51.9c0.2,11.2,0,0,0.3,11.2c0.1,4.5,0.2,9.1,0.3,13.6c0,1.9,2.1,3.9,4.9,3.9
							C163.7,868,166.3,866.5,166.3,864.5z"/>
						<path class="st21" d="M141,834.6c-0.5-10-1.1-20-1.7-30c-0.8-13.2-1.3-20.1-1.9-33.3c-0.4-8.1-0.9-16.3-1.2-24.4
							c-0.2-4.5,0-16.2-3.8-19.6c-2.8-2.5-4.2,7.1-4.3,10.1c-0.8,18.7-0.6,37.5,0.6,56.1c0.7,11.7,0.8,13.3,1.5,25.1
							c0.3,5.3,0.6,10.6,0.9,15.9c0.1,2.6,2.2,5.1,5,5C138.6,839.5,141.1,837.4,141,834.6z"/>
						<path class="st21" d="M126.6,898c12.8,3.9,25.8,7.1,38.9,9.7c10.1,2,20.4,4.5,30.7,4.7h1c4.4,0-5.6-4.5-1.3-3.6
							c1.7,0.3-0.4,2.1,0,0c0.4-1.8-0.5-4.3-2.3-4.7c-23-4.7-46-9-69.1-12.4c-2.7-0.6-5.6-0.6-8.3-0.3c-0.7,0.1-1.5,0.5-1.6,1.3
							c-0.1,1,0.9,1.6,1.7,1.9C119.6,895.8,123.1,896.9,126.6,898z"/>
						<path class="st21" d="M171.9,921.8l19.9,1.6l9,0.7l1.2,0.1c1.1,0.1-0.8-0.1,0,0l1.9,0.2l3.9,0.3c2.7,0.2,4.8,1.7,5.1,4.7
							c0.3,2.5-2,5.5-4.5,5.3c-6.7-0.5-13.5-1.1-20.2-1.6c-13.7-1.1-27.3-2.2-41-3.4c-6.6-0.5-1.4-0.4-8.1-0.9l-9-0.7l-1.2-0.1
							c-1.1-0.1-11-0.7-11.9-0.7c-0.6,0,10.6,0.6,10,0.6l-3.9-0.3l-11.8-0.7c-2.7-0.2-20.2-2.3-20.5-5.3c-0.2-2.4,33.5-1.8,36-1.5
							L171.9,921.8z"/>
						<path class="st21" d="M104.5,953.4c-0.8-0.6-0.4-0.3-0.2-0.1l-0.8-0.6l-1.5-1.2c-1.2-0.9-2.3-1.9-3.5-2.8
							c-2.1-1.8-4.2-3.6-6.3-5.4c-4.1-3.7-8.1-7.5-12-11.5s-7.7-8.1-11.3-12.4c-1.7-2-3.4-4.1-5.1-6.2l-1.2-1.6l-0.1-0.2
							c-0.2-0.3-0.4-0.5-0.6-0.8c-0.9-1.2-1.8-2.4-2.7-3.6c-6.5-8.9-12.5-18.3-17.8-28c-2.7-4.9-5.2-9.9-7.6-15
							c-2.4-5.3-4-9.1-6.1-14.5c-3.9-10.4-7.2-21.1-9.7-31.9c-1.2-5.4-2.3-10.8-3.1-16.3c-0.2-1.3-0.4-2.7-0.6-4
							c-0.1-1-0.1-0.4,0-0.2c0-0.3-0.1-0.7-0.1-1c-0.1-0.8-0.2-1.7-0.3-2.5c-0.3-2.8-0.6-5.5-0.8-8.3c-1.1-13-1.1-25.7,2.5-38
							c0.4-1.5,0.9-3,1.4-4.5c0.2-0.6,0.5-1.2,0.7-1.9L18,740c-0.3,0.7,0,0,0.1-0.3c1-2.3,2.2-4.5,3.5-6.7c0.6-1.1,1.3-2.1,2-3.1
							l1.1-1.5l0.5-0.7l0.5-0.6l0.3-0.4l0.6-0.7c0.4-0.5,0.8-1,1.2-1.4c0.9-1,1.7-2,2.6-2.9c1.8-1.9,3.8-3.7,5.8-5.4
							c0.5-0.4,1-0.8,1.4-1.2l0.7-0.6c-0.2,0.1-0.7,0.5,0.1-0.1c1-0.8,2.1-1.6,3.2-2.3c4.3-2.9,8.8-5.4,13.5-7.5l0.9-0.4
							c0.7-0.3-0.6,0.3,0.1,0l1.8-0.7c1.2-0.5,2.5-0.9,3.8-1.4c2.5-0.8,5.1-1.6,7.7-2.2c2.4-0.6,4.9-1,7.4-1.4c1-0.2,0.3,0,0.1,0
							l0.9-0.1l2.1-0.2c1.7-0.2,3.3-0.3,5-0.3c24.4-1,48,7.2,68.8,19.8c21.4,13,39.5,30.5,56.8,48.8c16.3,17.2,32.1,35.4,45.8,54
							c13.9,18.7,26.2,38.4,36.9,59.1c5.2,10.1,10.1,20.8,14.1,30.7c4.4,10.9,8.2,22,11.5,33.2c1.6,5.6,3.1,11.2,4.5,16.9
							c0.7,2.7,3.5,4.2,6.1,3.5l0,0c2.6-0.8,4.2-3.5,3.5-6.2c-5.8-23.6-13.8-46.7-24-68.7c-10-21.4-21.8-42-35.2-61.4
							c-13.9-20-29.1-38.9-45.5-56.8c-17.6-19.2-35.8-38.1-57-53.5c-20.9-15.2-45.2-26.3-71.1-29c-22.8-2.4-46.5,2.8-65.3,16.4
							c-9.1,6.4-16.7,14.6-22.4,24.2c-6.5,11.2-9.3,23.9-10,36.8C1.8,778.3,3.1,791,5,803.5c1.7,11.2,4.3,22.2,7.6,33
							c6.7,22,16.4,43,28.7,62.3C53.7,918.1,68.8,935.7,86,951c4.3,3.8,8.8,7.5,13.4,11c2.1,1.6,5.7,0.4,6.8-1.8
							C107.7,957.6,106.7,955.1,104.5,953.4L104.5,953.4z"/>
					</g>
				</g>
			</g>
		</g>
	</g>
	<g id="stars">
		<path id="star2" class="st9" d="M172,46.4c-0.4-7.6-0.2-15.2,0.4-22.7c0.1-1.2,0.7-2.7,1.8-2.6s1.4,1.4,1.5,2.5
			c0.6,6.7,1.2,13.4,1.8,20.1c5.6-2.5,11.8-3.6,17.9-3.2c0.5,0,0.9,0.5,0.9,1c0,0.2-0.1,0.4-0.2,0.5c-2.5,3.2-6,5.5-9.9,6.5
			c-1.4,0.4-3,0.8-3.7,2c-0.3,0.9-0.4,1.8-0.3,2.8c0.5,5.8,0.3,11.7-0.7,17.4c-0.1,0.6-0.7,1-1.3,0.8c-0.3-0.1-0.5-0.2-0.7-0.5
			c-2.7-4.5-2.4-10.6-4.2-15.7c-0.2-0.6-0.5-1.1-1-1.5c-0.7-0.3-1.5-0.4-2.2-0.3c-5.9,0.6-11.8,0.8-17.6,0.5
			c-1.6-0.1-3.8-1.1-3.1-2.5c0.2-0.4,0.6-0.8,1.1-1c3-1.7,6.3-2.8,9.8-3.2L172,46.4z"/>
		<path id="star1" class="st9" d="M121.9,619.2c1.3-4.8,3-9.5,5.1-14c0.3-0.7,1-1.5,1.7-1.2s0.6,1.2,0.4,1.9c-1,4.3-2,8.6-3.1,12.9
			c4-0.4,8.1,0.2,11.8,1.8c0.3,0.1,0.5,0.5,0.3,0.8c-0.1,0.1-0.1,0.2-0.2,0.3c-2.2,1.4-4.9,2.1-7.5,2c-1,0-2-0.2-2.7,0.5
			c-0.4,0.5-0.7,1.1-0.8,1.7c-0.9,3.7-2.3,7.3-4.1,10.7c-0.2,0.3-0.7,0.5-1,0.3c-0.2-0.1-0.3-0.3-0.3-0.5c-0.8-3.3,0.8-7.1,0.7-10.7
			c0-0.4-0.1-0.8-0.3-1.1c-0.3-0.4-0.8-0.6-1.3-0.6c-3.8-0.8-7.5-2-11.1-3.4c-1-0.4-2.1-1.5-1.4-2.2c0.2-0.2,0.5-0.3,0.9-0.4
			c2.2-0.5,4.5-0.5,6.8,0L121.9,619.2z"/>
		<path id="star3" class="st9" d="M532.3,90.2c2.1-7.3,4.6-14.5,7.7-21.4c0.5-1,1.5-2.3,2.6-1.8s0.9,1.8,0.7,2.9
			c-1.6,6.5-3.1,13.1-4.7,19.6c6.1-0.6,12.3,0.4,18,2.7c0.5,0.3,0.7,0.9,0.4,1.4c-0.1,0.1-0.2,0.2-0.3,0.3c-3.4,2.2-7.4,3.2-11.5,3
			c-1.5-0.1-3.1-0.2-4.2,0.8c-0.6,0.7-1,1.6-1.1,2.5c-1.4,5.7-3.4,11.2-6.2,16.3c-0.3,0.5-1,0.7-1.5,0.3c-0.2-0.2-0.4-0.4-0.5-0.7
			c-1.2-5.1,1.1-10.8,1-16.2c0-0.6-0.2-1.2-0.5-1.7c-0.5-0.6-1.2-0.9-2-1c-5.7-1.3-11.4-3-16.9-5.1c-1.5-0.6-3.2-2.2-2.1-3.4
			c0.4-0.3,0.8-0.5,1.3-0.6c3.4-0.7,6.9-0.6,10.3,0.1L532.3,90.2z"/>
		<path id="star4" class="st9" d="M792,259.2c2-4.8,4.4-9.4,7.1-13.8c0.4-0.7,1.2-1.4,1.9-1s0.5,1.3,0.2,2l-4.9,12.9
			c4.2,0.1,8.3,1.3,12,3.4c0.3,0.2,0.4,0.6,0.2,0.9c-0.1,0.1-0.2,0.2-0.3,0.2c-2.5,1.2-5.3,1.5-8,1.1c-1-0.2-2.1-0.5-2.9,0.1
			c-0.5,0.4-0.8,1-1,1.6c-1.4,3.7-3.4,7.2-5.7,10.4c-0.2,0.3-0.7,0.4-1,0.2c-0.2-0.1-0.3-0.3-0.3-0.6c-0.3-3.5,1.7-7.2,2.1-10.9
			c0.1-0.4,0-0.8-0.1-1.2c-0.3-0.4-0.8-0.7-1.3-0.8c-3.8-1.4-7.5-3-11-5c-1-0.5-2-1.8-1.2-2.5c0.3-0.2,0.6-0.3,0.9-0.3
			c2.4-0.2,4.8,0.2,7,0.9L792,259.2z"/>
	</g>
</g>
<g id="Layer_2_1_">
</g>
</svg>
