<svg width="110" height="42" viewBox="0 0 110 42" fill="none" xmlns="http://www.w3.org/2000/svg">
<path d="M8.83984 20.543C8.83984 14.5368 12.7207 10.0974 18.4988 10.0974C23.0696 10.0974 26.7779 12.8829 26.7779 15.6684C26.7779 16.8435 26.0017 17.6269 24.7081 17.6269C21.5603 17.6269 21.6897 11.8819 17.5502 11.8819C15.2217 11.8819 13.1088 14.1886 13.1088 17.8881C13.1088 23.7202 16.5153 27.5503 20.0511 27.5503C22.9833 27.5503 24.665 25.4176 25.5705 23.8508C26.0449 23.2415 27.0798 23.4155 26.9504 24.3295C26.6485 28.029 23.9751 31.5109 18.7575 31.5109C13.2381 31.5109 8.83984 26.201 8.83984 20.543Z" fill="#133A23"/>
<path d="M28.373 30.7275V30.5969C28.373 29.857 29.4942 29.6394 29.4942 28.3772V13.9275C29.4942 12.6218 28.373 12.3171 28.373 11.7078V11.5772C28.373 11.2725 28.5886 11.142 28.9336 10.9679L32.5988 9.1399C33.375 8.74819 33.8062 9.18342 33.8062 9.66218V28.3337C33.8062 29.5523 35.0567 29.8135 35.0567 30.5534V30.6839C35.0567 30.9886 34.7549 31.2062 34.3668 31.2062H29.063C28.6318 31.2062 28.373 31.0321 28.373 30.7275Z" fill="#133A23"/>
<path d="M49.5024 27.0713C49.3299 28.7687 47.3463 31.5107 43.5949 31.5107C39.5416 31.5107 36.5663 28.5511 36.5663 24.0247C36.48 20.1511 39.4984 16.8869 43.3793 16.7998C43.4655 16.7998 43.5518 16.7998 43.5949 16.7998C47.3895 16.7998 49.1143 19.0195 49.1143 20.978C49.1574 21.8485 48.64 22.6319 47.8207 22.9366L41.3526 25.8962C41.9994 27.463 43.5086 28.4641 45.1903 28.4641C46.5271 28.5076 47.7775 27.8547 48.5106 26.7666C48.8556 26.3314 49.5024 26.462 49.5024 27.0713ZM40.5764 22.0226C40.5764 22.8931 40.6627 23.72 40.8783 24.547L44.6298 22.6319C45.1472 22.3708 45.449 21.805 45.4059 21.2392C45.4059 20.1946 44.6298 18.1055 43.0774 18.1055C41.5251 18.1055 40.5764 19.8029 40.5764 22.0226Z" fill="#133A23"/>
<path d="M62.5245 19.4984C62.5245 20.7171 62.0502 21.8052 60.6703 21.8052C58.3849 21.8052 59.4198 19.2808 57.8244 19.2808C56.7032 19.2808 56.272 20.8912 56.272 22.5015V28.3772C56.272 29.5958 57.7381 29.857 57.7381 30.5969V30.7274C57.7381 31.0756 57.4794 31.2497 57.0913 31.2497H51.7444C51.3132 31.2497 51.0545 31.0756 51.0545 30.7274V30.5969C51.0545 29.857 52.1756 29.6394 52.1756 28.3772V21.544C52.1756 20.2383 50.8389 20.1513 50.8389 19.4114V19.2808C50.8389 18.9762 51.0545 18.7585 51.4426 18.5844L54.9353 16.9306C55.5821 16.6259 55.8839 16.9741 55.8839 17.5399V19.7596C56.5308 17.8881 57.9106 16.8435 59.851 16.8435C61.2309 16.7565 62.4382 17.8445 62.5245 19.2373C62.5245 19.3243 62.5245 19.4114 62.5245 19.4984Z" fill="#133A23"/>
<path d="M79.6004 30.6404V30.7275C79.6004 31.0757 79.3848 31.2498 78.9967 31.2498H73.5636C73.2617 31.2933 73.003 31.0757 73.003 30.771V30.7275V30.684C73.003 29.9441 74.081 29.77 73.6067 29.0736L70.4589 24.5907L68.7341 26.2011V28.4207C68.7341 29.6394 69.9846 29.9005 69.9846 30.6404V30.771C69.9846 31.0757 69.7258 31.2933 69.2946 31.2933H63.9477C63.5596 31.2933 63.3009 31.0757 63.3009 30.771V30.6404C63.3009 29.9005 64.422 29.6829 64.422 28.4207V13.9275C64.422 12.6218 63.1284 12.3171 63.1284 11.7078V11.5772C63.1284 11.2726 63.344 11.142 63.7321 10.9679L67.6129 9.13992C68.3029 8.79173 68.7772 9.18344 68.7772 9.6622V23.9378L73.3911 19.9337C74.2535 19.1938 72.7011 18.4539 72.7011 17.7575V17.627C72.7011 17.3223 72.9167 17.1047 73.3048 17.1047H77.4444C77.7893 17.1047 78.0481 17.2788 78.0481 17.5834V17.714C78.0481 18.4539 76.6251 18.9327 75.5471 19.8902L73.1755 22.1099L78.0481 29.0301C78.5224 29.6829 79.6004 29.9441 79.6004 30.6404Z" fill="#133A23"/>
<path d="M79.6001 28.0723C79.6001 26.9407 80.3763 26.462 81.3249 26.462C83.869 26.462 82.8772 30.3356 85.8094 30.3356C87.0168 30.3356 87.9223 29.7262 87.9223 28.377C87.9223 24.4599 79.8157 26.8972 79.8157 21.1086C79.8157 18.6278 82.2304 16.7998 85.7232 16.7998C89.3884 16.7998 91.7169 18.4972 91.7169 20.3252C91.6738 21.1957 90.9407 21.892 90.1215 21.8485C87.7067 21.8485 88.5691 18.0185 86.025 18.0185C84.9901 17.9749 84.1277 18.8019 84.1277 19.8464C84.1277 19.89 84.1277 19.9335 84.1277 19.977C84.1277 23.9812 92.0619 21.6309 92.0619 27.2454C92.0619 29.6392 89.7334 31.4672 85.8525 31.4672C82.058 31.4672 79.6001 29.9003 79.6001 28.0723Z" fill="#133A23"/>
<path d="M108.534 17.5834V17.714C108.534 18.4539 107.629 18.715 107.068 20.0207L101.549 32.1202C100.6 34.2093 98.1853 39.3886 95.1668 39.3886C92.5365 39.3886 90.8979 37.7782 90.8979 36.2549C90.8548 35.3409 91.5447 34.5575 92.4502 34.514C92.5365 34.514 92.5796 34.514 92.6658 34.514C95.0375 34.514 94.3044 38.0394 95.8136 38.0394C96.8485 38.0394 98.9183 34.0788 99.7376 32.0767L93.9163 20.0207C93.2695 18.715 92.364 18.4539 92.364 17.714V17.5834C92.364 17.2788 92.6227 17.1047 92.9677 17.1047H98.4009C98.6596 17.0611 98.9183 17.2788 98.9614 17.5834V17.6269V17.7575C98.9614 18.4974 97.8834 18.5845 98.5302 20.1078L101.937 28.0725L105.085 20.543C105.861 18.715 103.791 18.4974 103.791 17.801V17.6705C103.791 17.3658 104.007 17.1482 104.395 17.1482H107.93C108.275 17.1047 108.534 17.3223 108.534 17.5834Z" fill="#133A23"/>
<path d="M4.57099 18.5844C4.61411 18.6279 4.57099 18.7149 4.52787 18.7584C4.48475 18.802 4.39851 18.7584 4.35539 18.7149C3.49298 17.4963 1.81129 14.4932 1.94065 9.48798C1.94065 8.00819 2.24249 6.52839 2.80306 5.13565C3.27738 4.00404 4.57099 2.13254 6.03708 2.74187C7.50317 3.35119 5.47652 5.6144 5.04531 6.26725C2.54433 10.0538 3.14802 14.5367 4.57099 18.5844Z" fill="#FDBC4E"/>
<path d="M5.38989 16.2777C5.38989 16.3212 5.34677 16.3212 5.30365 16.3212C5.26053 16.3212 5.26053 16.2777 5.26053 16.2777C5.08805 14.4932 5.00181 10.5761 6.64038 7.1378C7.41655 5.44039 8.62392 3.96059 10.1331 2.87251C10.6937 2.4808 11.3405 2.26318 12.0304 2.26318C12.8497 2.35023 13.4965 3.09013 13.1084 3.91707C12.5047 5.17925 10.8662 5.35334 9.83129 6.13676C8.49456 7.1378 7.54591 8.66111 6.8991 10.1844C6.12294 12.0995 5.60549 14.1886 5.38989 16.2777Z" fill="#FDBC4E"/>
<path d="M7.02881 15.3638C7.02881 15.0156 7.07193 14.6674 7.15817 14.3628C7.50313 13.1441 7.97746 11.969 8.62426 10.8809C10.3491 7.96485 12.8501 5.39698 16.1703 4.61356C17.1621 4.35242 20.3961 4.35242 19.3612 6.26744C18.6713 7.4861 16.6878 6.96382 15.5666 7.18143C13.4106 7.61667 11.6858 8.96589 10.1766 10.4892C8.53802 12.1866 7.11505 15.4073 7.02881 15.3638Z" fill="#FDBC4E"/>
</svg>
